<?xml version="1.0" encoding="UTF-8" standalone="no" ?>
<COLLADA xmlns="http://www.collada.org/2005/11/COLLADASchema" version="1.4.1">
  <asset>
    <contributor>
      <author>Assimp</author>
      <authoring_tool>Assimp Exporter</authoring_tool>
    </contributor>
    <created>2026-02-08T14:08:15</created>
    <modified>2026-02-08T14:08:15</modified>
    <unit name="meter" meter="1" />
    <up_axis>Y_UP</up_axis>
  </asset>
  <library_images>
  </library_images>
  <library_effects>
    <effect id="DefaultMaterial-fx" name="DefaultMaterial">
      <profile_COMMON>
        <technique sid="standard">
          <phong>
            <ambient>
              <color sid="ambient">0.0500000007   0.0500000007   0.0500000007   1</color>
            </ambient>
            <diffuse>
              <color sid="diffuse">1   1   1   1</color>
            </diffuse>
            <specular>
              <color sid="specular">1   1   1   1</color>
            </specular>
          </phong>
        </technique>
      </profile_COMMON>
    </effect>
  </library_effects>
  <library_materials>
    <material id="DefaultMaterial" name="DefaultMaterial">
      <instance_effect url="#DefaultMaterial-fx"/>
    </material>
  </library_materials>
  <library_geometries>
    <geometry id="mesh_0" name="" >
      <mesh>
        <source id="mesh_0-positions" name="mesh_0-positions">
          <float_array id="mesh_0-positions-array" count="2232"> 0.0291866921 0 -0.00759485876 0.00718669174 -0.00439992547 -0.00701559754 0.00718669174 0 -0.00759485876 0.00718669174 -0.00439992547 -0.00701559754 0.0291866921 0 -0.00759485876 0.0291866921 -0.00439992547 -0.00701559754 0.00718669174 0.0164207388 0.00500521855 0.0291866921 0.0147224283 0.000905141875 0.00718669174 0.0147224283 0.000905141875 0.0291866921 0.0147224283 0.000905141875 0.00718669174 0.0164207388 0.00500521855 0.0291866921 0.0164207388 0.00500521855 0.00718669174 -0.0170000009 -0.017594859 0.00218669139 -0.0170000009 -0.00859485846 -0.0508133136 -0.0170000009 -0.017594859 0.00218669139 -0.0170000009 -0.00859485846 0.00718669174 -0.0170000009 -0.017594859 0.00718669174 -0.0170000009 -0.00359485834 0.00218669139 -0.0170000009 -0.00859485846 0.00718669174 -0.0170000009 -0.00359485834 0.00218669139 -0.0170000009 -0.00359485834 -0.0508133136 -0.0170000009 -0.00859485846 -0.0508133136 -0.0170000009 -0.017594859 0.00218669139 -0.0170000009 -0.00859485846 0.0291866921 -0.0120208208 -0.00261567323 0.00718669174 -0.0147224357 0.000905141875 0.00718669174 -0.0120208208 -0.00261567323 0.00718669174 -0.0147224357 0.000905141875 0.0291866921 -0.0120208208 -0.00261567323 0.0291866921 -0.0147224357 0.000905141875 0.0291866921 0.00439991802 0.0258258805 0.00218669139 0.00850000046 0.0241275746 0.00218669139 0.00439991802 0.0258258805 0.00218669139 0.00850000046 0.0241275746 0.0291866921 0.00439991802 0.0258258805 0.0291866921 0.00850000046 0.0241275746 0.0291866921 -0.0147224357 0.000905141875 0.00718669174 -0.0164207462 0.00500521855 0.00718669174 -0.0147224357 0.000905141875 0.00718669174 -0.0164207462 0.00500521855 0.0291866921 -0.0147224357 0.000905141875 0.0291866921 -0.0164207462 0.00500521855 0.0291866921 -0.0164207462 0.00500521855 0.0291866921 -0.0164207462 0.0138050662 0.0291866921 -0.0170000009 0.00940514263 0.0291866921 -0.0164207462 0.0138050662 0.0291866921 -0.0164207462 0.00500521855 0.0291866921 -0.0147224357 0.000905141875 0.0291866921 -0.0164207462 0.0138050662 0.0291866921 -0.0147224357 0.000905141875 0.0291866921 -0.0147224357 0.0179051422 0.0291866921 -0.0147224357 0.0179051422 0.0291866921 -0.0147224357 0.000905141875 0.0291866921 -0.0120208208 -0.00261567323 0.0291866921 -0.0147224357 0.0179051422 0.0291866921 -0.0120208208 -0.00261567323 0.0291866921 -0.0120208208 0.0214259587 0.0291866921 -0.0120208208 0.0214259587 0.0291866921 -0.0120208208 -0.00261567323 0.0291866921 -0.00850000046 -0.00531729078 0.0291866921 -0.0120208208 0.0214259587 0.0291866921 -0.00850000046 -0.00531729078 0.0291866921 -0.00850000046 0.0241275746 0.0291866921 -0.00850000046 0.0241275746 0.0291866921 -0.00850000046 -0.00531729078 0.0291866921 -0.00439992547 -0.00701559754 0.0291866921 -0.00850000046 0.0241275746 0.0291866921 -0.00439992547 -0.00701559754 0.0291866921 -0.00439992547 0.0258258805 0.0291866921 -0.00439992547 0.0258258805 0.0291866921 -0.00439992547 -0.00701559754 0.0291866921 0 -0.00759485876 0.0291866921 -0.00439992547 0.0258258805 0.0291866921 0 -0.00759485876 0.0291866921 0 0.0264051426 0.0291866921 0 0.0264051426 0.0291866921 0 -0.00759485876 0.0291866921 0.00439991802 -0.00701559754 0.0291866921 0 0.0264051426 0.0291866921 0.00439991802 -0.00701559754 0.0291866921 0.00439991802 0.0258258805 0.0291866921 0.00439991802 0.0258258805 0.0291866921 0.00439991802 -0.00701559754 0.0291866921 0.00850000046 0.0241275746 0.0291866921 0.00850000046 0.0241275746 0.0291866921 0.00439991802 -0.00701559754 0.0291866921 0.00850000046 -0.00531729078 0.0291866921 0.00850000046 0.0241275746 0.0291866921 0.00850000046 -0.00531729078 0.0291866921 0.0120208133 -0.00261567323 0.0291866921 0.00850000046 0.0241275746 0.0291866921 0.0120208133 -0.00261567323 0.0291866921 0.0120208133 0.0214259587 0.0291866921 0.0120208133 0.0214259587 0.0291866921 0.0120208133 -0.00261567323 0.0291866921 0.0147224283 0.0179051422 0.0291866921 0.0147224283 0.0179051422 0.0291866921 0.0120208133 -0.00261567323 0.0291866921 0.0147224283 0.000905141875 0.0291866921 0.0147224283 0.0179051422 0.0291866921 0.0147224283 0.000905141875 0.0291866921 0.0164207388 0.0138050662 0.0291866921 0.0164207388 0.0138050662 0.0291866921 0.0147224283 0.000905141875 0.0291866921 0.0164207388 0.00500521855 0.0291866921 0.0164207388 0.0138050662 0.0291866921 0.0164207388 0.00500521855 0.0291866921 0.0170000009 0.00940514263 0.00718669174 0.0170000009 -0.017594859 -0.0508133136 -0.0170000009 -0.017594859 -0.0508133136 0.0170000009 -0.017594859 -0.0508133136 -0.0170000009 -0.017594859 0.00718669174 0.0170000009 -0.017594859 0.00718669174 -0.0170000009 -0.017594859 0.0291866921 -0.0164207462 0.00500521855 0.00718669174 -0.0170000009 0.00940514263 0.00718669174 -0.0164207462 0.00500521855 0.00718669174 -0.0170000009 0.00940514263 0.0291866921 -0.0164207462 0.00500521855 0.0291866921 -0.0170000009 0.00940514263 0.00218669139 0.0147224283 0.0179051422 0.0291866921 0.0164207388 0.0138050662 0.00218669139 0.0164207388 0.0138050662 0.0291866921 0.0164207388 0.0138050662 0.00218669139 0.0147224283 0.0179051422 0.0291866921 0.0147224283 0.0179051422 0.00218669139 -0.00439992547 0.0258258805 0.00218669139 -0.00289778155 0.0101815993 0.00218669139 -0.00300000003 0.00940514263 0.00218669139 -0.00289778155 0.0101815993 0.00218669139 -0.00439992547 0.0258258805 0.00218669139 0 0.0264051426 0.00218669139 -0.00289778155 0.0101815993 0.00218669139 0 0.0264051426 0.00218669139 -0.00259808358 0.0109051419 0.00218669139 -0.00259808358 0.0109051419 0.00218669139 0 0.0264051426 0.00218669139 -0.00212132279 0.0115264636 0.00218669139 -0.00212132279 0.0115264636 0.00218669139 0 0.0264051426 0.00218669139 -0.00150000001 0.0120032178 0.00218669139 -0.00150000001 0.0120032178 0.00218669139 0 0.0264051426 0.00218669139 -0.000776458764 0.0123029202 0.00218669139 -0.000776458764 0.0123029202 0.00218669139 0 0.0264051426 0.00218669139 0 0.0124051422 0.00218669139 0 0.0124051422 0.00218669139 0 0.0264051426 0.00218669139 0.00439991802 0.0258258805 0.00218669139 0 0.0124051422 0.00218669139 0.00439991802 0.0258258805 0.00218669139 0.000776451139 0.0123029202 0.00218669139 0.000776451139 0.0123029202 0.00218669139 0.00439991802 0.0258258805 0.00218669139 0.00150000001 0.0120032178 0.00218669139 0.00150000001 0.0120032178 0.00218669139 0.00439991802 0.0258258805 0.00218669139 0.0021213151 0.0115264636 0.00218669139 0.0021213151 0.0115264636 0.00218669139 0.00439991802 0.0258258805 0.00218669139 0.00259807589 0.0109051419 0.00218669139 0.00259807589 0.0109051419 0.00218669139 0.00439991802 0.0258258805 0.00218669139 0.00289777387 0.0101815993 0.00218669139 0.00289777387 0.0101815993 0.00218669139 0.00439991802 0.0258258805 0.00218669139 0.00300000003 0.00940514263 0.00218669139 -0.0240000002 0.0124051422 0.00218669139 -0.0250000004 0.0074051423 0.00218669139 -0.0250000004 0.011405142 0.00218669139 -0.0250000004 0.0074051423 0.00218669139 -0.0240000002 0.0124051422 0.00218669139 -0.0170000009 -0.00359485834 0.00218669139 -0.0170000009 -0.00359485834 0.00218669139 -0.0240000002 0.0124051422 0.00218669139 -0.0166050419 0.0124051422 0.00218669139 -0.0170000009 -0.00359485834 0.00218669139 -0.0166050419 0.0124051422 0.00218669139 -0.0170000009 -0.00859485846 0.00218669139 -0.0170000009 -0.00859485846 0.00218669139 -0.0166050419 0.0124051422 0.00218669139 0.0170000009 -0.00859485846 0.00218669139 0.0170000009 -0.00859485846 0.00218669139 -0.0166050419 0.0124051422 0.00218669139 -0.0164207462 0.0138050662 0.00218669139 0.0170000009 -0.00859485846 0.00218669139 -0.0164207462 0.0138050662 0.00218669139 -0.00212132279 0.00728382124 0.00218669139 -0.00212132279 0.00728382124 0.00218669139 -0.0164207462 0.0138050662 0.00218669139 -0.0147224357 0.0179051422 0.00218669139 -0.00212132279 0.00728382124 0.00218669139 -0.0147224357 0.0179051422 0.00218669139 -0.00259808358 0.00790514238 0.00218669139 -0.00259808358 0.00790514238 0.00218669139 -0.0147224357 0.0179051422 0.00218669139 -0.0120208208 0.0214259587 0.00218669139 -0.00259808358 0.00790514238 0.00218669139 -0.0120208208 0.0214259587 0.00218669139 -0.00289778155 0.00862868503 0.00218669139 -0.00289778155 0.00862868503 0.00218669139 -0.0120208208 0.0214259587 0.00218669139 -0.00850000046 0.0241275746 0.00218669139 -0.00289778155 0.00862868503 0.00218669139 -0.00850000046 0.0241275746 0.00218669139 -0.00300000003 0.00940514263 0.00218669139 -0.00300000003 0.00940514263 0.00218669139 -0.00850000046 0.0241275746 0.00218669139 -0.00439992547 0.0258258805 0.00218669139 0.0170000009 -0.00859485846 0.00218669139 -0.00212132279 0.00728382124 0.00218669139 -0.00150000001 0.0068070665 0.00218669139 0.0170000009 -0.00859485846 0.00218669139 -0.00150000001 0.0068070665 0.00218669139 -0.000776458764 0.00650736457 0.00218669139 0.0170000009 -0.00859485846 0.00218669139 -0.000776458764 0.00650736457 0.00218669139 0 0.00640514214 0.00218669139 0.0170000009 -0.00859485846 0.00218669139 0 0.00640514214 0.00218669139 0.000776451139 0.00650736457 0.00218669139 0.0170000009 -0.00859485846 0.00218669139 0.000776451139 0.00650736457 0.00218669139 0.00150000001 0.0068070665 0.00218669139 0.0170000009 -0.00859485846 0.00218669139 0.00150000001 0.0068070665 0.00218669139 0.0021213151 0.00728382124 0.00218669139 0.0170000009 -0.00859485846 0.00218669139 0.0021213151 0.00728382124 0.00218669139 0.00259807589 0.00790514238 0.00218669139 0.0170000009 -0.00859485846 0.00218669139 0.00259807589 0.00790514238 0.00218669139 0.00289777387 0.00862868503 0.00218669139 0.0170000009 -0.00859485846 0.00218669139 0.00289777387 0.00862868503 0.00218669139 0.00300000003 0.00940514263 0.00218669139 0.0170000009 -0.00859485846 0.00218669139 0.00300000003 0.00940514263 0.00218669139 0.00439991802 0.0258258805 0.00218669139 0.0170000009 -0.00859485846 0.00218669139 0.00439991802 0.0258258805 0.00218669139 0.00850000046 0.0241275746 0.00218669139 0.0170000009 -0.00859485846 0.00218669139 0.00850000046 0.0241275746 0.00218669139 0.0120208133 0.0214259587 0.00218669139 0.0170000009 -0.00859485846 0.00218669139 0.0120208133 0.0214259587 0.00218669139 0.0147224283 0.0179051422 0.00218669139 0.0170000009 -0.00859485846 0.00218669139 0.0147224283 0.0179051422 0.00218669139 0.0164207388 0.0138050662 0.00218669139 0.0170000009 -0.00859485846 0.00218669139 0.0164207388 0.0138050662 0.00218669139 0.0166050419 0.0124051422 0.00218669139 0.0170000009 -0.00859485846 0.00218669139 0.0166050419 0.0124051422 0.00218669139 0.0170000009 -0.00359485834 0.00218669139 0.0170000009 -0.00359485834 0.00218669139 0.0166050419 0.0124051422 0.00218669139 0.0240000002 0.0124051422 0.00218669139 0.0170000009 -0.00359485834 0.00218669139 0.0240000002 0.0124051422 0.00218669139 0.0250000004 0.0074051423 0.00218669139 0.0250000004 0.0074051423 0.00218669139 0.0240000002 0.0124051422 0.00218669139 0.0250000004 0.011405142 0.0291866921 -0.00850000046 -0.00531729078 0.00718669174 -0.0120208208 -0.00261567323 0.00718669174 -0.00850000046 -0.00531729078 0.00718669174 -0.0120208208 -0.00261567323 0.0291866921 -0.00850000046 -0.00531729078 0.0291866921 -0.0120208208 -0.00261567323 0.0291866921 -0.00850000046 0.0241275746 0.00218669139 -0.00439992547 0.0258258805 0.00218669139 -0.00850000046 0.0241275746 0.00218669139 -0.00439992547 0.0258258805 0.0291866921 -0.00850000046 0.0241275746 0.0291866921 -0.00439992547 0.0258258805 0.0291866921 0.00439991802 -0.00701559754 0.00718669174 0 -0.00759485876 0.00718669174 0.00439991802 -0.00701559754 0.00718669174 0 -0.00759485876 0.0291866921 0.00439991802 -0.00701559754 0.0291866921 0 -0.00759485876 0.00718669174 0.0147224283 0.000905141875 0.0291866921 0.0120208133 -0.00261567323 0.00718669174 0.0120208133 -0.00261567323 0.0291866921 0.0120208133 -0.00261567323 0.00718669174 0.0147224283 0.000905141875 0.0291866921 0.0147224283 0.000905141875 0.0291866921 0 0.0264051426 0.00218669139 0.00439991802 0.0258258805 0.00218669139 0 0.0264051426 0.00218669139 0.00439991802 0.0258258805 0.0291866921 0 0.0264051426 0.0291866921 0.00439991802 0.0258258805 0.0291866921 -0.00439992547 -0.00701559754 0.00718669174 -0.00850000046 -0.00531729078 0.00718669174 -0.00439992547 -0.00701559754 0.00718669174 -0.00850000046 -0.00531729078 0.0291866921 -0.00439992547 -0.00701559754 0.0291866921 -0.00850000046 -0.00531729078 -0.0508133136 0.0170000009 -0.00859485846 -0.0508133136 -0.0170000009 -0.017594859 -0.0508133136 -0.0170000009 -0.00859485846 -0.0508133136 -0.0170000009 -0.017594859 -0.0508133136 0.0170000009 -0.00859485846 -0.0508133136 0.0170000009 -0.017594859 0.0291866921 0.00850000046 -0.00531729078 0.00718669174 0.00439991802 -0.00701559754 0.00718669174 0.00850000046 -0.00531729078 0.00718669174 0.00439991802 -0.00701559754 0.0291866921 0.00850000046 -0.00531729078 0.0291866921 0.00439991802 -0.00701559754 0.0291866921 0.0120208133 -0.00261567323 0.00718669174 0.00850000046 -0.00531729078 0.00718669174 0.0120208133 -0.00261567323 0.00718669174 0.00850000046 -0.00531729078 0.0291866921 0.0120208133 -0.00261567323 0.0291866921 0.00850000046 -0.00531729078 0.0291866921 -0.0164207462 0.0138050662 0.00718669174 -0.0170000009 0.00940514263 0.0291866921 -0.0170000009 0.00940514263 0.00718669174 -0.0170000009 0.00940514263 0.0291866921 -0.0164207462 0.0138050662 0.00718669174 -0.0167366955 0.011405142 0.00718669174 -0.0167366955 0.011405142 0.0291866921 -0.0164207462 0.0138050662 0.00718669174 -0.0166050419 0.0124051422 0.00718669174 -0.0166050419 0.0124051422 0.0291866921 -0.0164207462 0.0138050662 0.00218669139 -0.0166050419 0.0124051422 0.00218669139 -0.0166050419 0.0124051422 0.0291866921 -0.0164207462 0.0138050662 0.00218669139 -0.0164207462 0.0138050662 0.00218669139 0.0164207388 0.0138050662 0.00718669174 0.0166050419 0.0124051422 0.00218669139 0.0166050419 0.0124051422 0.00718669174 0.0167366955 0.011405142 0.0291866921 0.0170000009 0.00940514263 0.00718669174 0.0170000009 0.00940514263 0.0291866921 0.0170000009 0.00940514263 0.00718669174 0.0167366955 0.011405142 0.0291866921 0.0164207388 0.0138050662 0.0291866921 0.0164207388 0.0138050662 0.00718669174 0.0167366955 0.011405142 0.00718669174 0.0166050419 0.0124051422 0.0291866921 0.0164207388 0.0138050662 0.00718669174 0.0166050419 0.0124051422 0.00218669139 0.0164207388 0.0138050662 0.0291866921 -0.00439992547 0.0258258805 0.00218669139 0 0.0264051426 0.00218669139 -0.00439992547 0.0258258805 0.00218669139 0 0.0264051426 0.0291866921 -0.00439992547 0.0258258805 0.0291866921 0 0.0264051426 0.00218669139 0.0120208133 0.0214259587 0.0291866921 0.0147224283 0.0179051422 0.00218669139 0.0147224283 0.0179051422 0.0291866921 0.0147224283 0.0179051422 0.00218669139 0.0120208133 0.0214259587 0.0291866921 0.0120208133 0.0214259587 0.00718669174 0.0170000009 0.00940514263 0.0291866921 0.0164207388 0.00500521855 0.00718669174 0.0164207388 0.00500521855 0.0291866921 0.0164207388 0.00500521855 0.00718669174 0.0170000009 0.00940514263 0.0291866921 0.0170000009 0.00940514263 0.0291866921 0.00850000046 0.0241275746 0.00218669139 0.0120208133 0.0214259587 0.00218669139 0.00850000046 0.0241275746 0.00218669139 0.0120208133 0.0214259587 0.0291866921 0.00850000046 0.0241275746 0.0291866921 0.0120208133 0.0214259587 -0.0508133136 0.0170000009 -0.00859485846 0.00718669174 0.0170000009 -0.017594859 -0.0508133136 0.0170000009 -0.017594859 0.00718669174 0.0170000009 -0.017594859 -0.0508133136 0.0170000009 -0.00859485846 0.00218669139 0.0170000009 -0.00859485846 0.00218669139 0.0170000009 -0.00859485846 0.00718669174 0.0170000009 -0.00359485834 0.00718669174 0.0170000009 -0.017594859 0.00718669174 0.0170000009 -0.00359485834 0.00218669139 0.0170000009 -0.00859485846 0.00218669139 0.0170000009 -0.00359485834 0.0291866921 -0.0147224357 0.0179051422 0.00218669139 -0.0164207462 0.0138050662 0.0291866921 -0.0164207462 0.0138050662 0.00218669139 -0.0164207462 0.0138050662 0.0291866921 -0.0147224357 0.0179051422 0.00218669139 -0.0147224357 0.0179051422 0.0291866921 -0.0120208208 0.0214259587 0.00218669139 -0.0147224357 0.0179051422 0.0291866921 -0.0147224357 0.0179051422 0.00218669139 -0.0147224357 0.0179051422 0.0291866921 -0.0120208208 0.0214259587 0.00218669139 -0.0120208208 0.0214259587 0.0291866921 -0.0120208208 0.0214259587 0.00218669139 -0.00850000046 0.0241275746 0.00218669139 -0.0120208208 0.0214259587 0.00218669139 -0.00850000046 0.0241275746 0.0291866921 -0.0120208208 0.0214259587 0.0291866921 -0.00850000046 0.0241275746 -0.00781330932 0.00289777387 0.0101815993 0.00218669139 0.00300000003 0.00940514263 -0.00781330932 0.00300000003 0.00940514263 0.00218669139 0.00300000003 0.00940514263 -0.00781330932 0.00289777387 0.0101815993 0.00218669139 0.00289777387 0.0101815993 0.00218669139 0.0250000004 0.011405142 0.00718669174 0.0250000004 0.0074051423 0.00218669139 0.0250000004 0.0074051423 0.00718669174 0.0250000004 0.0074051423 0.00218669139 0.0250000004 0.011405142 0.00718669174 0.0250000004 0.011405142 0.00718669174 -0.0170000009 -0.00359485834 0.00718669174 -0.0250000004 0.011405142 0.00718669174 -0.0250000004 0.0074051423 0.00718669174 -0.0250000004 0.011405142 0.00718669174 -0.0170000009 -0.00359485834 0.00718669174 -0.0240000002 0.0124051422 0.00718669174 -0.0240000002 0.0124051422 0.00718669174 -0.0170000009 -0.00359485834 0.00718669174 -0.0170000009 0.00940514263 0.00718669174 -0.0240000002 0.0124051422 0.00718669174 -0.0170000009 0.00940514263 0.00718669174 -0.0167366955 0.011405142 0.00718669174 -0.0240000002 0.0124051422 0.00718669174 -0.0167366955 0.011405142 0.00718669174 -0.0166050419 0.0124051422 0.00718669174 0.0170000009 -0.017594859 0.00718669174 -0.0170000009 -0.00359485834 0.00718669174 -0.0170000009 -0.017594859 0.00718669174 -0.0170000009 -0.00359485834 0.00718669174 0.0170000009 -0.017594859 0.00718669174 -0.00850000046 -0.00531729078 0.00718669174 -0.0170000009 -0.00359485834 0.00718669174 -0.00850000046 -0.00531729078 0.00718669174 -0.0120208208 -0.00261567323 0.00718669174 -0.0170000009 -0.00359485834 0.00718669174 -0.0120208208 -0.00261567323 0.00718669174 -0.0147224357 0.000905141875 0.00718669174 -0.0170000009 -0.00359485834 0.00718669174 -0.0147224357 0.000905141875 0.00718669174 -0.0164207462 0.00500521855 0.00718669174 -0.0170000009 -0.00359485834 0.00718669174 -0.0164207462 0.00500521855 0.00718669174 -0.0170000009 0.00940514263 0.00718669174 -0.00850000046 -0.00531729078 0.00718669174 0.0170000009 -0.017594859 0.00718669174 -0.00439992547 -0.00701559754 0.00718669174 -0.00439992547 -0.00701559754 0.00718669174 0.0170000009 -0.017594859 0.00718669174 0 -0.00759485876 0.00718669174 0 -0.00759485876 0.00718669174 0.0170000009 -0.017594859 0.00718669174 0.00439991802 -0.00701559754 0.00718669174 0.00439991802 -0.00701559754 0.00718669174 0.0170000009 -0.017594859 0.00718669174 0.00850000046 -0.00531729078 0.00718669174 0.00850000046 -0.00531729078 0.00718669174 0.0170000009 -0.017594859 0.00718669174 0.0120208133 -0.00261567323 0.00718669174 0.0120208133 -0.00261567323 0.00718669174 0.0170000009 -0.017594859 0.00718669174 0.0147224283 0.000905141875 0.00718669174 0.0147224283 0.000905141875 0.00718669174 0.0170000009 -0.017594859 0.00718669174 0.0164207388 0.00500521855 0.00718669174 0.0164207388 0.00500521855 0.00718669174 0.0170000009 -0.017594859 0.00718669174 0.0170000009 0.00940514263 0.00718669174 0.0170000009 0.00940514263 0.00718669174 0.0170000009 -0.017594859 0.00718669174 0.0170000009 -0.00359485834 0.00718669174 0.0170000009 0.00940514263 0.00718669174 0.0170000009 -0.00359485834 0.00718669174 0.0250000004 0.0074051423 0.00718669174 0.0170000009 0.00940514263 0.00718669174 0.0250000004 0.0074051423 0.00718669174 0.0240000002 0.0124051422 0.00718669174 0.0240000002 0.0124051422 0.00718669174 0.0250000004 0.0074051423 0.00718669174 0.0250000004 0.011405142 0.00718669174 0.0167366955 0.011405142 0.00718669174 0.0240000002 0.0124051422 0.00718669174 0.0166050419 0.0124051422 0.00718669174 0.0240000002 0.0124051422 0.00718669174 0.0167366955 0.011405142 0.00718669174 0.0170000009 0.00940514263 0.00218669139 0.0240000002 0.0124051422 0.00718669174 0.0250000004 0.011405142 0.00218669139 0.0250000004 0.011405142 0.00718669174 0.0250000004 0.011405142 0.00218669139 0.0240000002 0.0124051422 0.00718669174 0.0240000002 0.0124051422 -0.00781330932 -0.00289778155 0.0101815993 -0.00781330932 -0.00289778155 0.00862868503 -0.00781330932 -0.00300000003 0.00940514263 -0.00781330932 -0.00289778155 0.00862868503 -0.00781330932 -0.00289778155 0.0101815993 -0.00781330932 -0.00259808358 0.0109051419 -0.00781330932 -0.00289778155 0.00862868503 -0.00781330932 -0.00259808358 0.0109051419 -0.00781330932 -0.00259808358 0.00790514238 -0.00781330932 -0.00259808358 0.00790514238 -0.00781330932 -0.00259808358 0.0109051419 -0.00781330932 -0.00212132279 0.0115264636 -0.00781330932 -0.00259808358 0.00790514238 -0.00781330932 -0.00212132279 0.0115264636 -0.00781330932 -0.00212132279 0.00728382124 -0.00781330932 -0.00212132279 0.00728382124 -0.00781330932 -0.00212132279 0.0115264636 -0.00781330932 -0.00150000001 0.0120032178 -0.00781330932 -0.00212132279 0.00728382124 -0.00781330932 -0.00150000001 0.0120032178 -0.00781330932 -0.00150000001 0.0068070665 -0.00781330932 -0.00150000001 0.0068070665 -0.00781330932 -0.00150000001 0.0120032178 -0.00781330932 -0.000776458764 0.0123029202 -0.00781330932 -0.00150000001 0.0068070665 -0.00781330932 -0.000776458764 0.0123029202 -0.00781330932 -0.000776458764 0.00650736457 -0.00781330932 -0.000776458764 0.00650736457 -0.00781330932 -0.000776458764 0.0123029202 -0.00781330932 0 0.0124051422 -0.00781330932 -0.000776458764 0.00650736457 -0.00781330932 0 0.0124051422 -0.00781330932 0 0.00640514214 -0.00781330932 0 0.00640514214 -0.00781330932 0 0.0124051422 -0.00781330932 0.000776451139 0.0123029202 -0.00781330932 0 0.00640514214 -0.00781330932 0.000776451139 0.0123029202 -0.00781330932 0.000776451139 0.00650736457 -0.00781330932 0.000776451139 0.00650736457 -0.00781330932 0.000776451139 0.0123029202 -0.00781330932 0.00150000001 0.0120032178 -0.00781330932 0.000776451139 0.00650736457 -0.00781330932 0.00150000001 0.0120032178 -0.00781330932 0.00150000001 0.0068070665 -0.00781330932 0.00150000001 0.0068070665 -0.00781330932 0.00150000001 0.0120032178 -0.00781330932 0.0021213151 0.0115264636 -0.00781330932 0.00150000001 0.0068070665 -0.00781330932 0.0021213151 0.0115264636 -0.00781330932 0.0021213151 0.00728382124 -0.00781330932 0.0021213151 0.00728382124 -0.00781330932 0.0021213151 0.0115264636 -0.00781330932 0.00259807589 0.0109051419 -0.00781330932 0.0021213151 0.00728382124 -0.00781330932 0.00259807589 0.0109051419 -0.00781330932 0.00259807589 0.00790514238 -0.00781330932 0.00259807589 0.00790514238 -0.00781330932 0.00259807589 0.0109051419 -0.00781330932 0.00289777387 0.0101815993 -0.00781330932 0.00259807589 0.00790514238 -0.00781330932 0.00289777387 0.0101815993 -0.00781330932 0.00289777387 0.00862868503 -0.00781330932 0.00289777387 0.00862868503 -0.00781330932 0.00289777387 0.0101815993 -0.00781330932 0.00300000003 0.00940514263 0.00218669139 -0.0170000009 -0.00859485846 -0.0508133136 0.0170000009 -0.00859485846 -0.0508133136 -0.0170000009 -0.00859485846 -0.0508133136 0.0170000009 -0.00859485846 0.00218669139 -0.0170000009 -0.00859485846 0.00218669139 0.0170000009 -0.00859485846 0.00718669174 0.0166050419 0.0124051422 0.00218669139 0.0240000002 0.0124051422 0.00218669139 0.0166050419 0.0124051422 0.00218669139 0.0240000002 0.0124051422 0.00718669174 0.0166050419 0.0124051422 0.00718669174 0.0240000002 0.0124051422 -0.00781330932 0.00300000003 0.00940514263 0.00218669139 0.00289777387 0.00862868503 -0.00781330932 0.00289777387 0.00862868503 0.00218669139 0.00289777387 0.00862868503 -0.00781330932 0.00300000003 0.00940514263 0.00218669139 0.00300000003 0.00940514263 -0.00781330932 0.00289777387 0.00862868503 0.00218669139 0.00259807589 0.00790514238 -0.00781330932 0.00259807589 0.00790514238 0.00218669139 0.00259807589 0.00790514238 -0.00781330932 0.00289777387 0.00862868503 0.00218669139 0.00289777387 0.00862868503 -0.00781330932 0.00259807589 0.00790514238 0.00218669139 0.0021213151 0.00728382124 -0.00781330932 0.0021213151 0.00728382124 0.00218669139 0.0021213151 0.00728382124 -0.00781330932 0.00259807589 0.00790514238 0.00218669139 0.00259807589 0.00790514238 0.00218669139 0.0021213151 0.00728382124 -0.00781330932 0.00150000001 0.0068070665 -0.00781330932 0.0021213151 0.00728382124 -0.00781330932 0.00150000001 0.0068070665 0.00218669139 0.0021213151 0.00728382124 0.00218669139 0.00150000001 0.0068070665 0.00218669139 0.00150000001 0.0068070665 -0.00781330932 0.000776451139 0.00650736457 -0.00781330932 0.00150000001 0.0068070665 -0.00781330932 0.000776451139 0.00650736457 0.00218669139 0.00150000001 0.0068070665 0.00218669139 0.000776451139 0.00650736457 0.00218669139 0.000776451139 0.00650736457 -0.00781330932 0 0.00640514214 -0.00781330932 0.000776451139 0.00650736457 -0.00781330932 0 0.00640514214 0.00218669139 0.000776451139 0.00650736457 0.00218669139 0 0.00640514214 0.00218669139 0 0.00640514214 -0.00781330932 -0.000776458764 0.00650736457 -0.00781330932 0 0.00640514214 -0.00781330932 -0.000776458764 0.00650736457 0.00218669139 0 0.00640514214 0.00218669139 -0.000776458764 0.00650736457 0.00218669139 -0.000776458764 0.00650736457 -0.00781330932 -0.00150000001 0.0068070665 -0.00781330932 -0.000776458764 0.00650736457 -0.00781330932 -0.00150000001 0.0068070665 0.00218669139 -0.000776458764 0.00650736457 0.00218669139 -0.00150000001 0.0068070665 0.00218669139 -0.00150000001 0.0068070665 -0.00781330932 -0.00212132279 0.00728382124 -0.00781330932 -0.00150000001 0.0068070665 -0.00781330932 -0.00212132279 0.00728382124 0.00218669139 -0.00150000001 0.0068070665 0.00218669139 -0.00212132279 0.00728382124 0.00218669139 -0.00259808358 0.00790514238 -0.00781330932 -0.00212132279 0.00728382124 0.00218669139 -0.00212132279 0.00728382124 -0.00781330932 -0.00212132279 0.00728382124 0.00218669139 -0.00259808358 0.00790514238 -0.00781330932 -0.00259808358 0.00790514238 0.00218669139 -0.00289778155 0.00862868503 -0.00781330932 -0.00259808358 0.00790514238 0.00218669139 -0.00259808358 0.00790514238 -0.00781330932 -0.00259808358 0.00790514238 0.00218669139 -0.00289778155 0.00862868503 -0.00781330932 -0.00289778155 0.00862868503 0.00218669139 -0.00300000003 0.00940514263 -0.00781330932 -0.00289778155 0.00862868503 0.00218669139 -0.00289778155 0.00862868503 -0.00781330932 -0.00289778155 0.00862868503 0.00218669139 -0.00300000003 0.00940514263 -0.00781330932 -0.00300000003 0.00940514263 0.00218669139 -0.00289778155 0.0101815993 -0.00781330932 -0.00300000003 0.00940514263 0.00218669139 -0.00300000003 0.00940514263 -0.00781330932 -0.00300000003 0.00940514263 0.00218669139 -0.00289778155 0.0101815993 -0.00781330932 -0.00289778155 0.0101815993 0.00218669139 -0.00259808358 0.0109051419 -0.00781330932 -0.00289778155 0.0101815993 0.00218669139 -0.00289778155 0.0101815993 -0.00781330932 -0.00289778155 0.0101815993 0.00218669139 -0.00259808358 0.0109051419 -0.00781330932 -0.00259808358 0.0109051419 0.00218669139 -0.00212132279 0.0115264636 -0.00781330932 -0.00259808358 0.0109051419 0.00218669139 -0.00259808358 0.0109051419 -0.00781330932 -0.00259808358 0.0109051419 0.00218669139 -0.00212132279 0.0115264636 -0.00781330932 -0.00212132279 0.0115264636 0.00218669139 -0.00212132279 0.0115264636 -0.00781330932 -0.00150000001 0.0120032178 -0.00781330932 -0.00212132279 0.0115264636 -0.00781330932 -0.00150000001 0.0120032178 0.00218669139 -0.00212132279 0.0115264636 0.00218669139 -0.00150000001 0.0120032178 0.00218669139 -0.00150000001 0.0120032178 -0.00781330932 -0.000776458764 0.0123029202 -0.00781330932 -0.00150000001 0.0120032178 -0.00781330932 -0.000776458764 0.0123029202 0.00218669139 -0.00150000001 0.0120032178 0.00218669139 -0.000776458764 0.0123029202 0.00218669139 -0.000776458764 0.0123029202 -0.00781330932 0 0.0124051422 -0.00781330932 -0.000776458764 0.0123029202 -0.00781330932 0 0.0124051422 0.00218669139 -0.000776458764 0.0123029202 0.00218669139 0 0.0124051422 0.00218669139 0 0.0124051422 -0.00781330932 0.000776451139 0.0123029202 -0.00781330932 0 0.0124051422 -0.00781330932 0.000776451139 0.0123029202 0.00218669139 0 0.0124051422 0.00218669139 0.000776451139 0.0123029202 0.00218669139 0.000776451139 0.0123029202 -0.00781330932 0.00150000001 0.0120032178 -0.00781330932 0.000776451139 0.0123029202 -0.00781330932 0.00150000001 0.0120032178 0.00218669139 0.000776451139 0.0123029202 0.00218669139 0.00150000001 0.0120032178 0.00218669139 0.00150000001 0.0120032178 -0.00781330932 0.0021213151 0.0115264636 -0.00781330932 0.00150000001 0.0120032178 -0.00781330932 0.0021213151 0.0115264636 0.00218669139 0.00150000001 0.0120032178 0.00218669139 0.0021213151 0.0115264636 -0.00781330932 0.0021213151 0.0115264636 0.00218669139 0.00259807589 0.0109051419 -0.00781330932 0.00259807589 0.0109051419 0.00218669139 0.00259807589 0.0109051419 -0.00781330932 0.0021213151 0.0115264636 0.00218669139 0.0021213151 0.0115264636 -0.00781330932 0.00259807589 0.0109051419 0.00218669139 0.00289777387 0.0101815993 -0.00781330932 0.00289777387 0.0101815993 0.00218669139 0.00289777387 0.0101815993 -0.00781330932 0.00259807589 0.0109051419 0.00218669139 0.00259807589 0.0109051419 0.00718669174 -0.0240000002 0.0124051422 0.00218669139 -0.0250000004 0.011405142 0.00718669174 -0.0250000004 0.011405142 0.00218669139 -0.0250000004 0.011405142 0.00718669174 -0.0240000002 0.0124051422 0.00218669139 -0.0240000002 0.0124051422 0.00718669174 -0.0240000002 0.0124051422 0.00218669139 -0.0166050419 0.0124051422 0.00218669139 -0.0240000002 0.0124051422 0.00218669139 -0.0166050419 0.0124051422 0.00718669174 -0.0240000002 0.0124051422 0.00718669174 -0.0166050419 0.0124051422 0.00718669174 -0.0250000004 0.0074051423 0.00218669139 -0.0170000009 -0.00359485834 0.00718669174 -0.0170000009 -0.00359485834 0.00218669139 -0.0170000009 -0.00359485834 0.00718669174 -0.0250000004 0.0074051423 0.00218669139 -0.0250000004 0.0074051423 0.00718669174 -0.0250000004 0.011405142 0.00218669139 -0.0250000004 0.0074051423 0.00718669174 -0.0250000004 0.0074051423 0.00218669139 -0.0250000004 0.0074051423 0.00718669174 -0.0250000004 0.011405142 0.00218669139 -0.0250000004 0.011405142 0.00218669139 0.0250000004 0.0074051423 0.00718669174 0.0170000009 -0.00359485834 0.00218669139 0.0170000009 -0.00359485834 0.00718669174 0.0170000009 -0.00359485834 0.00218669139 0.0250000004 0.0074051423 0.00718669174 0.0250000004 0.0074051423 </float_array>
          <technique_common>
            <accessor count="744" offset="0" source="#mesh_0-positions-array" stride="3">
              <param name="X" type="float" />
              <param name="Y" type="float" />
              <param name="Z" type="float" />
            </accessor>
          </technique_common>
        </source>
        <source id="mesh_0-normals" name="mesh_0-normals">
          <float_array id="mesh_0-normals-array" count="2232"> 0 -0.1305262 -0.991444826 0 -0.1305262 -0.991444826 0 -0.1305262 -0.991444826 0 -0.1305262 -0.991444826 0 -0.1305262 -0.991444826 0 -0.1305262 -0.991444826 0 0.923879325 -0.382684022 0 0.923879325 -0.382684022 0 0.923879325 -0.382684022 0 0.923879325 -0.382684022 0 0.923879325 -0.382684022 0 0.923879325 -0.382684022 0 -1 0 0 -1 0 0 -1 0 -0 -1 -0 -0 -1 -0 -0 -1 -0 0 -1 -0 0 -1 -0 0 -1 -0 -0 -1 0 -0 -1 0 -0 -1 0 0 -0.793353498 -0.608761251 0 -0.793353498 -0.608761251 0 -0.793353498 -0.608761251 0 -0.793353498 -0.608761251 0 -0.793353498 -0.608761251 0 -0.793353498 -0.608761251 0 0.382682711 0.923879862 0 0.382682711 0.923879862 0 0.382682711 0.923879862 0 0.382682711 0.923879862 0 0.382682711 0.923879862 0 0.382682711 0.923879862 0 -0.923879325 -0.382684022 0 -0.923879325 -0.382684022 0 -0.923879325 -0.382684022 0 -0.923879325 -0.382684022 0 -0.923879325 -0.382684022 0 -0.923879325 -0.382684022 1 -0 0 1 -0 0 1 -0 0 1 0 -0 1 0 -0 1 0 -0 1 0 0 1 0 0 1 0 0 1 0 -0 1 0 -0 1 0 -0 1 0 0 1 0 0 1 0 0 1 0 -0 1 0 -0 1 0 -0 1 0 0 1 0 0 1 0 0 1 0 -0 1 0 -0 1 0 -0 1 0 0 1 0 0 1 0 0 1 0 -0 1 0 -0 1 0 -0 1 0 0 1 0 0 1 0 0 1 0 -0 1 0 -0 1 0 -0 1 0 0 1 0 0 1 0 0 1 0 -0 1 0 -0 1 0 -0 1 0 -0 1 0 -0 1 0 -0 1 0 -0 1 0 -0 1 0 -0 1 0 0 1 0 0 1 0 0 1 0 -0 1 0 -0 1 0 -0 1 0 -0 1 0 -0 1 0 -0 1 0 -0 1 0 -0 1 0 -0 1 0 -0 1 0 -0 1 0 -0 1 0 -0 1 0 -0 1 0 -0 0 0 -1 0 0 -1 0 0 -1 -0 0 -1 -0 0 -1 -0 0 -1 0 -0.991445065 -0.130524799 0 -0.991445065 -0.130524799 0 -0.991445065 -0.130524799 0 -0.991445065 -0.130524799 0 -0.991445065 -0.130524799 0 -0.991445065 -0.130524799 -0 0.923879206 0.382684082 -0 0.923879206 0.382684082 -0 0.923879206 0.382684082 0 0.923879206 0.382684082 0 0.923879206 0.382684082 0 0.923879206 0.382684082 -1 0 0 -1 0 0 -1 0 0 -1 0 -0 -1 0 -0 -1 0 -0 -1 -0 0 -1 -0 0 -1 -0 0 -1 -0 0 -1 -0 0 -1 -0 0 -1 -0 0 -1 -0 0 -1 -0 0 -1 -0 0 -1 -0 0 -1 -0 0 -1 -0 0 -1 -0 0 -1 -0 0 -1 -0 -0 -1 -0 -0 -1 -0 -0 -1 -0 0 -1 -0 0 -1 -0 0 -1 -0 0 -1 -0 0 -1 -0 0 -1 -0 0 -1 -0 0 -1 -0 0 -1 -0 0 -1 -0 0 -1 -0 0 -1 -0 0 -1 -0 0 -1 -0 0 -1 -0 0 -1 -0 0 -1 -0 0 -1 0 0 -1 0 0 -1 0 0 -1 -0 0 -1 -0 0 -1 -0 0 -1 -0 -0 -1 -0 -0 -1 -0 -0 -1 -0 0 -1 -0 0 -1 -0 0 -1 -0 0 -1 -0 0 -1 -0 0 -1 0 -0 -1 0 -0 -1 0 -0 -1 -0 -0 -1 -0 -0 -1 -0 -0 -1 0 -0 -1 0 -0 -1 0 -0 -1 -0 -0 -1 -0 -0 -1 -0 -0 -1 0 -0 -1 0 -0 -1 0 -0 -1 -0 -0 -1 -0 -0 -1 -0 -0 -1 0 -0 -1 0 -0 -1 0 -0 -1 -0 -0 -1 -0 -0 -1 -0 -0 -1 0 -0 -1 0 -0 -1 0 -0 -1 -0 -0 -1 -0 -0 -1 -0 -0 -1 -0 -0 -1 -0 -0 -1 -0 -0 -1 -0 -0 -1 -0 -0 -1 -0 -0 -1 0 -0 -1 0 -0 -1 0 -0 -1 0 -0 -1 0 -0 -1 0 -0 -1 0 -0 -1 0 -0 -1 0 -0 -1 0 -0 -1 0 -0 -1 0 -0 -1 0 -0 -1 0 -0 -1 0 -0 -1 0 -0 -1 0 -0 -1 0 -0 -1 0 -0 -1 0 -0 -1 0 -0 -1 -0 -0 -1 -0 -0 -1 -0 -0 -1 -0 -0 -1 -0 -0 -1 -0 -0 -1 -0 -0 -1 -0 -0 -1 -0 -0 -1 -0 -0 -1 -0 -0 -1 -0 -0 -1 -0 -0 -1 -0 -0 -1 -0 -0 -1 -0 -0 -1 -0 -0 -1 -0 -0 -1 -0 -0 -1 -0 -0 -1 -0 -0 -1 -0 0 -1 -0 0 -1 -0 0 -1 -0 -0 -1 -0 -0 -1 -0 -0 0 -0.608761013 -0.793353677 0 -0.608761013 -0.793353677 0 -0.608761013 -0.793353677 0 -0.608761013 -0.793353677 0 -0.608761013 -0.793353677 0 -0.608761013 -0.793353677 0 -0.382683277 0.923879623 0 -0.382683277 0.923879623 0 -0.382683277 0.923879623 0 -0.382683277 0.923879623 0 -0.382683277 0.923879623 0 -0.382683277 0.923879623 0 0.130526423 -0.991444826 0 0.130526423 -0.991444826 0 0.130526423 -0.991444826 0 0.130526423 -0.991444826 0 0.130526423 -0.991444826 0 0.130526423 -0.991444826 0 0.793353498 -0.608761251 0 0.793353498 -0.608761251 0 0.793353498 -0.608761251 0 0.793353498 -0.608761251 0 0.793353498 -0.608761251 0 0.793353498 -0.608761251 0 0.130526617 0.991444767 0 0.130526617 0.991444767 0 0.130526617 0.991444767 0 0.130526617 0.991444767 0 0.130526617 0.991444767 0 0.130526617 0.991444767 0 -0.382683456 -0.923879564 0 -0.382683456 -0.923879564 0 -0.382683456 -0.923879564 0 -0.382683456 -0.923879564 0 -0.382683456 -0.923879564 0 -0.382683456 -0.923879564 -1 0 0 -1 0 0 -1 0 0 -1 -0 0 -1 -0 0 -1 -0 0 0 0.38268286 -0.923879802 0 0.38268286 -0.923879802 0 0.38268286 -0.923879802 0 0.38268286 -0.923879802 0 0.38268286 -0.923879802 0 0.38268286 -0.923879802 0 0.608761847 -0.793353021 0 0.608761847 -0.793353021 0 0.608761847 -0.793353021 0 0.608761847 -0.793353021 0 0.608761847 -0.793353021 0 0.608761847 -0.793353021 0 -0.991445065 0.130524814 0 -0.991445065 0.130524814 0 -0.991445065 0.130524814 -3.27896004e-07 -0.991444767 0.130526394 -3.27896004e-07 -0.991444767 0.130526394 -3.27896004e-07 -0.991444767 0.130526394 -4.21397374e-07 -0.991444707 0.130527258 -4.21397374e-07 -0.991444707 0.130527258 -4.21397374e-07 -0.991444707 0.130527258 0 -0.991445541 0.130520776 0 -0.991445541 0.130520776 0 -0.991445541 0.130520776 0 -0.991445541 0.130520776 0 -0.991445541 0.130520776 0 -0.991445541 0.130520776 -0 0.991444886 0.130525947 -0 0.991444886 0.130525947 -0 0.991444886 0.130525947 -0 0.991444886 0.130526423 -0 0.991444886 0.130526423 -0 0.991444886 0.130526423 4.07548173e-09 0.991444826 0.130526453 4.07548173e-09 0.991444826 0.130526453 4.07548173e-09 0.991444826 0.130526453 -8.58164881e-08 0.991444707 0.130527258 -8.58164881e-08 0.991444707 0.130527258 -8.58164881e-08 0.991444707 0.130527258 0 0.991444886 0.130525962 0 0.991444886 0.130525962 0 0.991444886 0.130525962 0 -0.130526394 0.991444826 0 -0.130526394 0.991444826 0 -0.130526394 0.991444826 0 -0.130526394 0.991444826 0 -0.130526394 0.991444826 0 -0.130526394 0.991444826 -0 0.793353677 0.608761072 -0 0.793353677 0.608761072 -0 0.793353677 0.608761072 0 0.793353677 0.608761072 0 0.793353677 0.608761072 0 0.793353677 0.608761072 0 0.991444826 -0.130526453 0 0.991444826 -0.130526453 0 0.991444826 -0.130526453 0 0.991444826 -0.130526453 0 0.991444826 -0.130526453 0 0.991444826 -0.130526453 0 0.608761549 0.7933532 0 0.608761549 0.7933532 0 0.608761549 0.7933532 0 0.608761549 0.7933532 0 0.608761549 0.7933532 0 0.608761549 0.7933532 0 1 -0 0 1 -0 0 1 -0 0 1 0 0 1 0 0 1 0 0 1 -0 0 1 -0 0 1 -0 -0 1 0 -0 1 0 -0 1 0 0 -0.923879206 0.382684082 0 -0.923879206 0.382684082 0 -0.923879206 0.382684082 0 -0.923879206 0.382684082 0 -0.923879206 0.382684082 0 -0.923879206 0.382684082 0 -0.793353677 0.608761072 0 -0.793353677 0.608761072 0 -0.793353677 0.608761072 0 -0.793353677 0.608761072 0 -0.793353677 0.608761072 0 -0.793353677 0.608761072 0 -0.608760774 0.793353856 0 -0.608760774 0.793353856 0 -0.608760774 0.793353856 0 -0.608760774 0.793353856 0 -0.608760774 0.793353856 0 -0.608760774 0.793353856 -0 0.99144423 0.130530819 -0 0.99144423 0.130530819 -0 0.99144423 0.130530819 0 0.99144423 0.130530819 0 0.99144423 0.130530819 0 0.99144423 0.130530819 0 1 -0 0 1 -0 0 1 -0 0 1 0 0 1 0 0 1 0 1 -0 0 1 -0 0 1 -0 0 1 0 0 1 0 0 1 0 0 1 0 0 1 0 0 1 0 0 1 0 0 1 0 0 1 0 0 1 0 0 1 0 0 1 0 0 1 -0 0 1 -0 0 1 -0 0 1 0 0 1 0 0 1 0 0 1 0 0 1 0 0 1 0 0 1 0 0 1 0 0 1 0 0 1 0 0 1 0 0 1 0 0 1 0 0 1 0 0 1 0 0 1 0 0 1 0 0 1 0 0 1 0 0 1 0 0 1 0 0 1 0 0 1 0 0 1 0 0 1 0 0 1 0 0 1 0 0 1 0 0 1 0 0 1 0 0 1 0 0 1 0 0 1 0 0 1 0 0 1 0 0 1 0 0 1 0 0 1 0 0 1 0 0 0 0 0 0 0 0 0 0 0 1 0 -0 1 0 -0 1 0 -0 1 0 0 1 0 0 1 0 0 1 0 0 1 0 0 1 0 0 1 -0 0 1 -0 0 1 -0 0 1 0 -0 1 0 -0 1 0 -0 -0 0.707106829 0.707106829 -0 0.707106829 0.707106829 -0 0.707106829 0.707106829 0 0.707106829 0.707106829 0 0.707106829 0.707106829 0 0.707106829 0.707106829 -1 0 0 -1 0 0 -1 0 0 -1 0 -0 -1 0 -0 -1 0 -0 -1 -0 0 -1 -0 0 -1 -0 0 -1 0 -0 -1 0 -0 -1 0 -0 -1 -0 0 -1 -0 0 -1 -0 0 -1 0 -0 -1 0 -0 -1 0 -0 -1 -0 0 -1 -0 0 -1 -0 0 -1 0 -0 -1 0 -0 -1 0 -0 -1 -0 0 -1 -0 0 -1 -0 0 -1 0 -0 -1 0 -0 -1 0 -0 -1 -0 0 -1 -0 0 -1 -0 0 -1 -0 -0 -1 -0 -0 -1 -0 -0 -1 -0 0 -1 -0 0 -1 -0 0 -1 -0 -0 -1 -0 -0 -1 -0 -0 -1 -0 0 -1 -0 0 -1 -0 0 -1 -0 -0 -1 -0 -0 -1 -0 -0 -1 -0 0 -1 -0 0 -1 -0 0 -1 -0 -0 -1 -0 -0 -1 -0 -0 -1 -0 0 -1 -0 0 -1 -0 0 -1 -0 -0 -1 -0 -0 -1 -0 -0 -1 -0 0 -1 -0 0 -1 -0 0 -1 -0 -0 -1 -0 -0 -1 -0 -0 -0 0 1 -0 0 1 -0 0 1 0 0 1 0 0 1 0 0 1 -0 0 1 -0 0 1 -0 0 1 0 0 1 0 0 1 0 0 1 0 0.99144423 -0.13053067 0 0.99144423 -0.13053067 0 0.99144423 -0.13053067 0 0.99144423 -0.13053067 0 0.99144423 -0.13053067 0 0.99144423 -0.13053067 0 0.923880994 -0.382679969 0 0.923880994 -0.382679969 0 0.923880994 -0.382679969 0 0.923880994 -0.382679969 0 0.923880994 -0.382679969 0 0.923880994 -0.382679969 0 0.793350697 -0.608764887 0 0.793350697 -0.608764887 0 0.793350697 -0.608764887 0 0.793350697 -0.608764887 0 0.793350697 -0.608764887 0 0.793350697 -0.608764887 0 0.608763754 -0.793351531 0 0.608763754 -0.793351531 0 0.608763754 -0.793351531 0 0.608763754 -0.793351531 0 0.608763754 -0.793351531 0 0.608763754 -0.793351531 0 0.382681459 -0.923880398 0 0.382681459 -0.923880398 0 0.382681459 -0.923880398 0 0.382681459 -0.923880398 0 0.382681459 -0.923880398 0 0.382681459 -0.923880398 0 0.130527079 -0.991444707 0 0.130527079 -0.991444707 0 0.130527079 -0.991444707 0 0.130527079 -0.991444707 0 0.130527079 -0.991444707 0 0.130527079 -0.991444707 0 -0.130525813 -0.991444945 0 -0.130525813 -0.991444945 0 -0.130525813 -0.991444945 0 -0.130525813 -0.991444945 0 -0.130525813 -0.991444945 0 -0.130525813 -0.991444945 0 -0.382684886 -0.923878908 0 -0.382684886 -0.923878908 0 -0.382684886 -0.923878908 0 -0.382684886 -0.923878908 0 -0.382684886 -0.923878908 0 -0.382684886 -0.923878908 0 -0.608759046 -0.793355167 0 -0.608759046 -0.793355167 0 -0.608759046 -0.793355167 0 -0.608759046 -0.793355167 0 -0.608759046 -0.793355167 0 -0.608759046 -0.793355167 -0 -0.793350697 -0.608764887 -0 -0.793350697 -0.608764887 -0 -0.793350697 -0.608764887 0 -0.793350697 -0.608764887 0 -0.793350697 -0.608764887 0 -0.793350697 -0.608764887 -0 -0.923880994 -0.382679969 -0 -0.923880994 -0.382679969 -0 -0.923880994 -0.382679969 0 -0.923880994 -0.382679969 0 -0.923880994 -0.382679969 0 -0.923880994 -0.382679969 -0 -0.991445482 -0.130521044 -0 -0.991445482 -0.130521044 -0 -0.991445482 -0.130521044 0 -0.991445482 -0.130521044 0 -0.991445482 -0.130521044 0 -0.991445482 -0.130521044 0 -0.991445601 0.130521208 0 -0.991445601 0.130521208 0 -0.991445601 0.130521208 0 -0.991445601 0.130521208 0 -0.991445601 0.130521208 0 -0.991445601 0.130521208 0 -0.923880994 0.382679969 0 -0.923880994 0.382679969 0 -0.923880994 0.382679969 0 -0.923880994 0.382679969 0 -0.923880994 0.382679969 0 -0.923880994 0.382679969 0 -0.793350995 0.608764648 0 -0.793350995 0.608764648 0 -0.793350995 0.608764648 0 -0.793350995 0.608764648 0 -0.793350995 0.608764648 0 -0.793350995 0.608764648 0 -0.608758628 0.793355465 0 -0.608758628 0.793355465 0 -0.608758628 0.793355465 0 -0.608758628 0.793355465 0 -0.608758628 0.793355465 0 -0.608758628 0.793355465 0 -0.382685393 0.92387867 0 -0.382685393 0.92387867 0 -0.382685393 0.92387867 0 -0.382685393 0.92387867 0 -0.382685393 0.92387867 0 -0.382685393 0.92387867 0 -0.130525216 0.991444945 0 -0.130525216 0.991444945 0 -0.130525216 0.991444945 0 -0.130525216 0.991444945 0 -0.130525216 0.991444945 0 -0.130525216 0.991444945 0 0.130526498 0.991444826 0 0.130526498 0.991444826 0 0.130526498 0.991444826 0 0.130526498 0.991444826 0 0.130526498 0.991444826 0 0.130526498 0.991444826 0 0.382681966 0.92388016 0 0.382681966 0.92388016 0 0.382681966 0.92388016 0 0.382681966 0.92388016 0 0.382681966 0.92388016 0 0.382681966 0.92388016 0 0.608763397 0.793351829 0 0.608763397 0.793351829 0 0.608763397 0.793351829 0 0.608763397 0.793351829 0 0.608763397 0.793351829 0 0.608763397 0.793351829 -0 0.793350995 0.608764648 -0 0.793350995 0.608764648 -0 0.793350995 0.608764648 0 0.793350995 0.608764648 0 0.793350995 0.608764648 0 0.793350995 0.608764648 -0 0.923880994 0.382679969 -0 0.923880994 0.382679969 -0 0.923880994 0.382679969 0 0.923880994 0.382679969 0 0.923880994 0.382679969 0 0.923880994 0.382679969 0 -0.707106829 0.707106829 0 -0.707106829 0.707106829 0 -0.707106829 0.707106829 0 -0.707106829 0.707106829 0 -0.707106829 0.707106829 0 -0.707106829 0.707106829 -0 0 1 -0 0 1 -0 0 1 0 0 1 0 0 1 0 0 1 -0 -0.808736145 -0.588171661 -0 -0.808736145 -0.588171661 -0 -0.808736145 -0.588171661 0 -0.808736145 -0.588171661 0 -0.808736145 -0.588171661 0 -0.808736145 -0.588171661 0 -1 0 0 -1 0 0 -1 0 0 -1 -0 0 -1 -0 0 -1 -0 0 0.808736145 -0.588171661 0 0.808736145 -0.588171661 0 0.808736145 -0.588171661 0 0.808736145 -0.588171661 0 0.808736145 -0.588171661 0 0.808736145 -0.588171661 </float_array>
          <technique_common>
            <accessor count="744" offset="0" source="#mesh_0-normals-array" stride="3">
              <param name="X" type="float" />
              <param name="Y" type="float" />
              <param name="Z" type="float" />
            </accessor>
          </technique_common>
        </source>
        <vertices id="mesh_0-vertices">
          <input semantic="POSITION" source="#mesh_0-positions" />
        </vertices>
        <polylist count="248" material="defaultMaterial">
          <input offset="0" semantic="VERTEX" source="#mesh_0-vertices" />
          <input offset="0" semantic="NORMAL" source="#mesh_0-normals" />
          <vcount>3 3 3 3 3 3 3 3 3 3 3 3 3 3 3 3 3 3 3 3 3 3 3 3 3 3 3 3 3 3 3 3 3 3 3 3 3 3 3 3 3 3 3 3 3 3 3 3 3 3 3 3 3 3 3 3 3 3 3 3 3 3 3 3 3 3 3 3 3 3 3 3 3 3 3 3 3 3 3 3 3 3 3 3 3 3 3 3 3 3 3 3 3 3 3 3 3 3 3 3 3 3 3 3 3 3 3 3 3 3 3 3 3 3 3 3 3 3 3 3 3 3 3 3 3 3 3 3 3 3 3 3 3 3 3 3 3 3 3 3 3 3 3 3 3 3 3 3 3 3 3 3 3 3 3 3 3 3 3 3 3 3 3 3 3 3 3 3 3 3 3 3 3 3 3 3 3 3 3 3 3 3 3 3 3 3 3 3 3 3 3 3 3 3 3 3 3 3 3 3 3 3 3 3 3 3 3 3 3 3 3 3 3 3 3 3 3 3 3 3 3 3 3 3 3 3 3 3 3 3 3 3 3 3 3 3 3 3 3 3 3 3 3 3 3 3 3 3 </vcount>
          <p>0 1 2 3 4 5 6 7 8 9 10 11 12 13 14 15 16 17 18 19 20 21 22 23 24 25 26 27 28 29 30 31 32 33 34 35 36 37 38 39 40 41 42 43 44 45 46 47 48 49 50 51 52 53 54 55 56 57 58 59 60 61 62 63 64 65 66 67 68 69 70 71 72 73 74 75 76 77 78 79 80 81 82 83 84 85 86 87 88 89 90 91 92 93 94 95 96 97 98 99 100 101 102 103 104 105 106 107 108 109 110 111 112 113 114 115 116 117 118 119 120 121 122 123 124 125 126 127 128 129 130 131 132 133 134 135 136 137 138 139 140 141 142 143 144 145 146 147 148 149 150 151 152 153 154 155 156 157 158 159 160 161 162 163 164 165 166 167 168 169 170 171 172 173 174 175 176 177 178 179 180 181 182 183 184 185 186 187 188 189 190 191 192 193 194 195 196 197 198 199 200 201 202 203 204 205 206 207 208 209 210 211 212 213 214 215 216 217 218 219 220 221 222 223 224 225 226 227 228 229 230 231 232 233 234 235 236 237 238 239 240 241 242 243 244 245 246 247 248 249 250 251 252 253 254 255 256 257 258 259 260 261 262 263 264 265 266 267 268 269 270 271 272 273 274 275 276 277 278 279 280 281 282 283 284 285 286 287 288 289 290 291 292 293 294 295 296 297 298 299 300 301 302 303 304 305 306 307 308 309 310 311 312 313 314 315 316 317 318 319 320 321 322 323 324 325 326 327 328 329 330 331 332 333 334 335 336 337 338 339 340 341 342 343 344 345 346 347 348 349 350 351 352 353 354 355 356 357 358 359 360 361 362 363 364 365 366 367 368 369 370 371 372 373 374 375 376 377 378 379 380 381 382 383 384 385 386 387 388 389 390 391 392 393 394 395 396 397 398 399 400 401 402 403 404 405 406 407 408 409 410 411 412 413 414 415 416 417 418 419 420 421 422 423 424 425 426 427 428 429 430 431 432 433 434 435 436 437 438 439 440 441 442 443 444 445 446 447 448 449 450 451 452 453 454 455 456 457 458 459 460 461 462 463 464 465 466 467 468 469 470 471 472 473 474 475 476 477 478 479 480 481 482 483 484 485 486 487 488 489 490 491 492 493 494 495 496 497 498 499 500 501 502 503 504 505 506 507 508 509 510 511 512 513 514 515 516 517 518 519 520 521 522 523 524 525 526 527 528 529 530 531 532 533 534 535 536 537 538 539 540 541 542 543 544 545 546 547 548 549 550 551 552 553 554 555 556 557 558 559 560 561 562 563 564 565 566 567 568 569 570 571 572 573 574 575 576 577 578 579 580 581 582 583 584 585 586 587 588 589 590 591 592 593 594 595 596 597 598 599 600 601 602 603 604 605 606 607 608 609 610 611 612 613 614 615 616 617 618 619 620 621 622 623 624 625 626 627 628 629 630 631 632 633 634 635 636 637 638 639 640 641 642 643 644 645 646 647 648 649 650 651 652 653 654 655 656 657 658 659 660 661 662 663 664 665 666 667 668 669 670 671 672 673 674 675 676 677 678 679 680 681 682 683 684 685 686 687 688 689 690 691 692 693 694 695 696 697 698 699 700 701 702 703 704 705 706 707 708 709 710 711 712 713 714 715 716 717 718 719 720 721 722 723 724 725 726 727 728 729 730 731 732 733 734 735 736 737 738 739 740 741 742 743 </p>
        </polylist>
      </mesh>
    </geometry>
  </library_geometries>
  <library_controllers>
  </library_controllers>
  <library_visual_scenes>
    <visual_scene id="_ySTL_BINARY_" name="&lt;STL_BINARY&gt;">
      <node id="node" name="" type="NODE">
        <matrix sid="matrix">1 0 0 0 0 1 0 0 0 0 1 0 0 0 0 1</matrix>
        <instance_geometry url="#mesh_0">
          <bind_material>
            <technique_common>
              <instance_material symbol="defaultMaterial" target="#DefaultMaterial">
              </instance_material>
            </technique_common>
          </bind_material>
        </instance_geometry>
      </node>
    </visual_scene>
  </library_visual_scenes>
  <scene>
    <instance_visual_scene url="#_ySTL_BINARY_" />
  </scene>
</COLLADA>
