<?xml version="1.0" encoding="UTF-8" standalone="no" ?>
<COLLADA xmlns="http://www.collada.org/2005/11/COLLADASchema" version="1.4.1">
  <asset>
    <contributor>
      <author>Assimp</author>
      <authoring_tool>Assimp Exporter</authoring_tool>
    </contributor>
    <created>2026-02-08T14:07:58</created>
    <modified>2026-02-08T14:07:58</modified>
    <unit name="meter" meter="1" />
    <up_axis>Y_UP</up_axis>
  </asset>
  <library_images>
  </library_images>
  <library_effects>
    <effect id="DefaultMaterial-fx" name="DefaultMaterial">
      <profile_COMMON>
        <technique sid="standard">
          <phong>
            <ambient>
              <color sid="ambient">0.0500000007   0.0500000007   0.0500000007   1</color>
            </ambient>
            <diffuse>
              <color sid="diffuse">1   1   1   1</color>
            </diffuse>
            <specular>
              <color sid="specular">1   1   1   1</color>
            </specular>
          </phong>
        </technique>
      </profile_COMMON>
    </effect>
  </library_effects>
  <library_materials>
    <material id="DefaultMaterial" name="DefaultMaterial">
      <instance_effect url="#DefaultMaterial-fx"/>
    </material>
  </library_materials>
  <library_geometries>
    <geometry id="mesh_0" name="" >
      <mesh>
        <source id="mesh_0-positions" name="mesh_0-positions">
          <float_array id="mesh_0-positions-array" count="1818"> -0.00156476605 0.0180082787 0.0186436549 0.00309397909 0.0173949432 0.00664365431 -0.00156476605 0.0180082787 0.00664365431 0.00309397909 0.0173949432 0.00664365431 -0.00156476605 0.0180082787 0.0186436549 0.00309397909 0.0173949432 0.0186436549 -0.0210647676 -0.0179917235 0.00664365431 -0.0195647664 -0.0194917228 -0.00335634639 -0.0195647664 -0.0194917228 0.00664365431 -0.0195647664 -0.0194917228 -0.00335634639 -0.0210647676 -0.0179917235 0.00664365431 -0.0210647676 -0.0179917235 -0.00335634639 -0.0210647676 0.0180082787 0.00664365431 -0.0210647676 -0.0179917235 -0.00335634639 -0.0210647676 -0.0179917235 0.00664365431 -0.0210647676 -0.0179917235 -0.00335634639 -0.0210647676 0.0180082787 0.00664365431 -0.0210647676 0.0180082787 -0.00335634639 -0.0300647672 0.0285082795 -0.00835634675 -0.0210647676 0.0180082787 -0.00835634675 -0.0300647672 -0.0284917243 -0.00835634675 -0.0210647676 0.0180082787 -0.00835634675 -0.0300647672 0.0285082795 -0.00835634675 -0.0195647664 0.019508278 -0.00835634675 -0.0195647664 0.019508278 -0.00835634675 -0.0300647672 0.0285082795 -0.00835634675 0.0211631563 0.0285082795 -0.00835634675 -0.0195647664 0.019508278 -0.00835634675 0.0211631563 0.0285082795 -0.00835634675 0.0164352357 0.019508278 -0.00835634675 0.0164352357 0.019508278 -0.00835634675 0.0211631563 0.0285082795 -0.00835634675 0.0179352351 0.0180082787 -0.00835634675 0.0179352351 0.0180082787 -0.00835634675 0.0211631563 0.0285082795 -0.00835634675 0.0179352351 -0.0179917235 -0.00835634675 -0.0300647672 -0.0284917243 -0.00835634675 -0.0195647664 -0.0194917228 -0.00835634675 0.0309352353 -0.0284917243 -0.00835634675 -0.0195647664 -0.0194917228 -0.00835634675 -0.0300647672 -0.0284917243 -0.00835634675 -0.0210647676 -0.0179917235 -0.00835634675 -0.0210647676 -0.0179917235 -0.00835634675 -0.0300647672 -0.0284917243 -0.00835634675 -0.0210647676 0.0180082787 -0.00835634675 0.0309352353 -0.0284917243 -0.00835634675 -0.0195647664 -0.0194917228 -0.00835634675 0.0164352357 -0.0194917228 -0.00835634675 0.0309352353 -0.0284917243 -0.00835634675 0.0164352357 -0.0194917228 -0.00835634675 0.0179352351 -0.0179917235 -0.00835634675 0.0309352353 -0.0284917243 -0.00835634675 0.0179352351 -0.0179917235 -0.00835634675 0.0211631563 0.0285082795 -0.00835634675 0.0309352353 -0.0284917243 -0.00835634675 0.0211631563 0.0285082795 -0.00835634675 0.0309352353 0.0285082795 -0.00835634675 -0.0300647672 -0.0284917243 -0.00335634639 -0.0210647676 -0.0179917235 -0.00335634639 -0.0300647672 0.0285082795 -0.00335634639 -0.0210647676 -0.0179917235 -0.00335634639 -0.0300647672 -0.0284917243 -0.00335634639 -0.0195647664 -0.0194917228 -0.00335634639 -0.0195647664 -0.0194917228 -0.00335634639 -0.0300647672 -0.0284917243 -0.00335634639 0.0309352353 -0.0284917243 -0.00335634639 -0.0195647664 -0.0194917228 -0.00335634639 0.0309352353 -0.0284917243 -0.00335634639 0.0164352357 -0.0194917228 -0.00335634639 0.0164352357 -0.0194917228 -0.00335634639 0.0309352353 -0.0284917243 -0.00335634639 0.0179352351 -0.0179917235 -0.00335634639 0.0179352351 -0.0179917235 -0.00335634639 0.0309352353 -0.0284917243 -0.00335634639 0.0179352351 -0.00799172278 -0.00335634639 0.0179352351 -0.00799172278 -0.00335634639 0.0309352353 -0.0284917243 -0.00335634639 0.0309352353 -0.00799172278 -0.00335634639 0.0309352353 0.00800827798 -0.00335634639 0.0179352351 0.0180082787 -0.00335634639 0.0179352351 0.00800827798 -0.00335634639 0.0179352351 0.0180082787 -0.00335634639 0.0309352353 0.00800827798 -0.00335634639 0.0211631563 0.0285082795 -0.00335634639 0.0211631563 0.0285082795 -0.00335634639 0.0309352353 0.00800827798 -0.00335634639 0.0309352353 0.0285082795 -0.00335634639 -0.0300647672 0.0285082795 -0.00335634639 -0.0195647664 0.019508278 -0.00335634639 0.0211631563 0.0285082795 -0.00335634639 -0.0195647664 0.019508278 -0.00335634639 -0.0300647672 0.0285082795 -0.00335634639 -0.0210647676 0.0180082787 -0.00335634639 -0.0210647676 0.0180082787 -0.00335634639 -0.0300647672 0.0285082795 -0.00335634639 -0.0210647676 -0.0179917235 -0.00335634639 0.0211631563 0.0285082795 -0.00335634639 -0.0195647664 0.019508278 -0.00335634639 0.0164352357 0.019508278 -0.00335634639 0.0211631563 0.0285082795 -0.00335634639 0.0164352357 0.019508278 -0.00335634639 0.0179352351 0.0180082787 -0.00335634639 -0.0195647664 -0.0194917228 -0.00335634639 -0.0210647676 0.0180082787 -0.00335634639 -0.0210647676 -0.0179917235 -0.00335634639 -0.0210647676 0.0180082787 -0.00335634639 -0.0195647664 -0.0194917228 -0.00335634639 -0.0195647664 0.019508278 -0.00335634639 -0.0195647664 0.019508278 -0.00335634639 -0.0195647664 -0.0194917228 -0.00335634639 0.0164352357 -0.0194917228 -0.00335634639 -0.0195647664 0.019508278 -0.00335634639 0.0164352357 -0.0194917228 -0.00335634639 0.0164352357 0.019508278 -0.00335634639 0.0164352357 0.019508278 -0.00335634639 0.0164352357 -0.0194917228 -0.00335634639 0.0179352351 -0.0179917235 -0.00335634639 0.0164352357 0.019508278 -0.00335634639 0.0179352351 -0.0179917235 -0.00335634639 0.0179352351 0.0180082787 -0.00335634639 0.0179352351 0.0180082787 -0.00335634639 0.0179352351 -0.0179917235 -0.00335634639 0.0179352351 -0.00799172278 -0.00335634639 0.0179352351 0.0180082787 -0.00335634639 0.0179352351 -0.00799172278 -0.00335634639 0.0179352351 0.00800827798 -0.00335634639 0.0309352353 -0.00799172278 0.00364365405 0.0179352351 -0.00799172278 -0.00335634639 0.0309352353 -0.00799172278 -0.00335634639 0.0179352351 -0.00799172278 -0.00335634639 0.0309352353 -0.00799172278 0.00364365405 0.0179352351 -0.00799172278 0.00364365405 0.0179352351 0.00800827798 0.00364365405 0.0309352353 0.00800827798 -0.00335634639 0.0179352351 0.00800827798 -0.00335634639 0.0309352353 0.00800827798 -0.00335634639 0.0179352351 0.00800827798 0.00364365405 0.0309352353 0.00800827798 0.00364365405 0.0179352351 0.00800827798 -0.00335634639 0.0179352351 -0.00799172278 0.00364365405 0.0179352351 -0.00799172278 -0.00335634639 0.0179352351 -0.00799172278 0.00364365405 0.0179352351 0.00800827798 -0.00335634639 0.0179352351 0.00800827798 0.00364365405 -0.0195647664 0.019508278 -0.0133563466 -0.0210647676 -0.0179917235 -0.0133563466 -0.0210647676 0.0180082787 -0.0133563466 -0.0210647676 -0.0179917235 -0.0133563466 -0.0195647664 0.019508278 -0.0133563466 -0.0195647664 -0.0194917228 -0.0133563466 -0.0195647664 -0.0194917228 -0.0133563466 -0.0195647664 0.019508278 -0.0133563466 0.0164352357 0.019508278 -0.0133563466 -0.0195647664 -0.0194917228 -0.0133563466 0.0164352357 0.019508278 -0.0133563466 0.0164352357 -0.0194917228 -0.0133563466 0.0164352357 -0.0194917228 -0.0133563466 0.0164352357 0.019508278 -0.0133563466 0.0179352351 0.0180082787 -0.0133563466 0.0164352357 -0.0194917228 -0.0133563466 0.0179352351 0.0180082787 -0.0133563466 0.0179352351 -0.0179917235 -0.0133563466 -0.0210647676 -0.0179917235 -0.00835634675 -0.0195647664 -0.0194917228 -0.0133563466 -0.0195647664 -0.0194917228 -0.00835634675 -0.0195647664 -0.0194917228 -0.0133563466 -0.0210647676 -0.0179917235 -0.00835634675 -0.0210647676 -0.0179917235 -0.0133563466 0.0164352357 -0.0194917228 -0.00835634675 -0.0195647664 -0.0194917228 -0.0133563466 0.0164352357 -0.0194917228 -0.0133563466 -0.0195647664 -0.0194917228 -0.0133563466 0.0164352357 -0.0194917228 -0.00835634675 -0.0195647664 -0.0194917228 -0.00835634675 0.0179352351 0.0180082787 -0.0133563466 0.0179352351 -0.0179917235 -0.00835634675 0.0179352351 -0.0179917235 -0.0133563466 0.0179352351 -0.0179917235 -0.00835634675 0.0179352351 0.0180082787 -0.0133563466 0.0179352351 0.0180082787 -0.00835634675 0.0164352357 0.019508278 -0.0133563466 0.0179352351 0.0180082787 -0.00835634675 0.0179352351 0.0180082787 -0.0133563466 0.0179352351 0.0180082787 -0.00835634675 0.0164352357 0.019508278 -0.0133563466 0.0164352357 0.019508278 -0.00835634675 0.0179352351 -0.0179917235 -0.00335634639 0.0164352357 -0.0194917228 0.00664365431 0.0164352357 -0.0194917228 -0.00335634639 0.0164352357 -0.0194917228 0.00664365431 0.0179352351 -0.0179917235 -0.00335634639 0.0179352351 -0.0179917235 0.00664365431 -0.0195647664 0.019508278 0.00664365431 -0.0210647676 0.0180082787 -0.00335634639 -0.0210647676 0.0180082787 0.00664365431 -0.0210647676 0.0180082787 -0.00335634639 -0.0195647664 0.019508278 0.00664365431 -0.0195647664 0.019508278 -0.00335634639 -0.0300647672 0.0285082795 -0.00335634639 0.0211631563 0.0285082795 -0.00835634675 -0.0300647672 0.0285082795 -0.00835634675 0.0211631563 0.0285082795 -0.00835634675 -0.0300647672 0.0285082795 -0.00335634639 0.0211631563 0.0285082795 -0.00335634639 -0.0195647664 -0.0194917228 0.00664365431 -0.0189514328 -0.00465045962 0.00664365431 -0.0195647664 8.27789336e-06 0.00664365431 -0.0189514328 -0.00465045962 0.00664365431 -0.0195647664 -0.0194917228 0.00664365431 -0.0171532221 -0.00899172295 0.00664365431 -0.0171532221 -0.00899172295 0.00664365431 -0.0195647664 -0.0194917228 0.00664365431 -0.0142926872 -0.0127196433 0.00664365431 -0.0142926872 -0.0127196433 0.00664365431 -0.0195647664 -0.0194917228 0.00664365431 -0.0105647668 -0.0155801782 0.00664365431 -0.0105647668 -0.0155801782 0.00664365431 -0.0195647664 -0.0194917228 0.00664365431 -0.00622351095 -0.017378388 0.00664365431 -0.00622351095 -0.017378388 0.00664365431 -0.0195647664 -0.0194917228 0.00664365431 -0.00156476605 -0.0179917235 0.00664365431 -0.00156476605 -0.0179917235 0.00664365431 -0.0195647664 -0.0194917228 0.00664365431 0.0164352357 -0.0194917228 0.00664365431 -0.00156476605 -0.0179917235 0.00664365431 0.0164352357 -0.0194917228 0.00664365431 0.00309397909 -0.017378388 0.00664365431 0.00309397909 -0.017378388 0.00664365431 0.0164352357 -0.0194917228 0.00664365431 0.00743523426 -0.0155801782 0.00664365431 0.00743523426 -0.0155801782 0.00664365431 0.0164352357 -0.0194917228 0.00664365431 0.0111631555 -0.0127196433 0.00664365431 0.0111631555 -0.0127196433 0.00664365431 0.0164352357 -0.0194917228 0.00664365431 0.0140236896 -0.00899172295 0.00664365431 0.0140236896 -0.00899172295 0.00664365431 0.0164352357 -0.0194917228 0.00664365431 0.0158219002 -0.00465045962 0.00664365431 0.0158219002 -0.00465045962 0.00664365431 0.0164352357 -0.0194917228 0.00664365431 0.0164352357 8.27789336e-06 0.00664365431 0.0164352357 8.27789336e-06 0.00664365431 0.0164352357 -0.0194917228 0.00664365431 0.0179352351 -0.0179917235 0.00664365431 0.0164352357 8.27789336e-06 0.00664365431 0.0179352351 -0.0179917235 0.00664365431 0.0164352357 0.019508278 0.00664365431 0.0164352357 0.019508278 0.00664365431 0.0179352351 -0.0179917235 0.00664365431 0.0179352351 0.0180082787 0.00664365431 -0.0195647664 -0.0194917228 0.00664365431 -0.0210647676 0.0180082787 0.00664365431 -0.0210647676 -0.0179917235 0.00664365431 -0.0210647676 0.0180082787 0.00664365431 -0.0195647664 -0.0194917228 0.00664365431 -0.0195647664 0.019508278 0.00664365431 -0.0195647664 0.019508278 0.00664365431 -0.0195647664 -0.0194917228 0.00664365431 -0.0195647664 8.27789336e-06 0.00664365431 -0.0195647664 0.019508278 0.00664365431 -0.0195647664 8.27789336e-06 0.00664365431 -0.0189514328 0.00466702273 0.00664365431 -0.0195647664 0.019508278 0.00664365431 -0.0189514328 0.00466702273 0.00664365431 -0.0171532221 0.00900827814 0.00664365431 -0.0195647664 0.019508278 0.00664365431 -0.0171532221 0.00900827814 0.00664365431 -0.0142926872 0.0127362069 0.00664365431 -0.0195647664 0.019508278 0.00664365431 -0.0142926872 0.0127362069 0.00664365431 -0.0105647668 0.0155967418 0.00664365431 -0.0195647664 0.019508278 0.00664365431 -0.0105647668 0.0155967418 0.00664365431 -0.00622351095 0.0173949432 0.00664365431 -0.0195647664 0.019508278 0.00664365431 -0.00622351095 0.0173949432 0.00664365431 -0.00156476605 0.0180082787 0.00664365431 -0.0195647664 0.019508278 0.00664365431 -0.00156476605 0.0180082787 0.00664365431 0.0164352357 0.019508278 0.00664365431 0.0164352357 0.019508278 0.00664365431 -0.00156476605 0.0180082787 0.00664365431 0.00309397909 0.0173949432 0.00664365431 0.0164352357 0.019508278 0.00664365431 0.00309397909 0.0173949432 0.00664365431 0.00743523426 0.0155967418 0.00664365431 0.0164352357 0.019508278 0.00664365431 0.00743523426 0.0155967418 0.00664365431 0.0111631555 0.0127362069 0.00664365431 0.0164352357 0.019508278 0.00664365431 0.0111631555 0.0127362069 0.00664365431 0.0140236896 0.00900827814 0.00664365431 0.0164352357 0.019508278 0.00664365431 0.0140236896 0.00900827814 0.00664365431 0.0158219002 0.00466702273 0.00664365431 0.0164352357 0.019508278 0.00664365431 0.0158219002 0.00466702273 0.00664365431 0.0164352357 8.27789336e-06 0.00664365431 0.0179352351 0.0180082787 -0.00335634639 0.0179352351 0.00800827798 0.00364365405 0.0179352351 0.00800827798 -0.00335634639 0.0179352351 -0.00799172278 -0.00335634639 0.0179352351 -0.0179917235 0.00664365431 0.0179352351 -0.0179917235 -0.00335634639 0.0179352351 -0.0179917235 0.00664365431 0.0179352351 -0.00799172278 -0.00335634639 0.0179352351 -0.00799172278 0.00364365405 0.0179352351 -0.0179917235 0.00664365431 0.0179352351 -0.00799172278 0.00364365405 0.0179352351 0.0180082787 0.00664365431 0.0179352351 0.0180082787 0.00664365431 0.0179352351 -0.00799172278 0.00364365405 0.0179352351 0.00800827798 0.00364365405 0.0179352351 0.0180082787 0.00664365431 0.0179352351 0.00800827798 0.00364365405 0.0179352351 0.0180082787 -0.00335634639 0.0309352353 -0.0284917243 -0.00335634639 -0.0300647672 -0.0284917243 -0.00835634675 0.0309352353 -0.0284917243 -0.00835634675 -0.0300647672 -0.0284917243 -0.00835634675 0.0309352353 -0.0284917243 -0.00335634639 -0.0300647672 -0.0284917243 -0.00335634639 0.0309352353 0.0285082795 -0.00835634675 0.0309352353 -0.0284917243 -0.00335634639 0.0309352353 -0.0284917243 -0.00835634675 0.0309352353 -0.0284917243 -0.00335634639 0.0309352353 0.0285082795 -0.00835634675 0.0309352353 -0.00799172278 -0.00335634639 0.0309352353 -0.00799172278 -0.00335634639 0.0309352353 0.0285082795 -0.00835634675 0.0309352353 0.00800827798 -0.00335634639 0.0309352353 -0.00799172278 -0.00335634639 0.0309352353 0.00800827798 -0.00335634639 0.0309352353 -0.00799172278 0.00364365405 0.0309352353 0.00800827798 -0.00335634639 0.0309352353 0.0285082795 -0.00835634675 0.0309352353 0.0285082795 -0.00335634639 0.0309352353 0.00800827798 0.00364365405 0.0309352353 -0.00799172278 0.00364365405 0.0309352353 0.00800827798 -0.00335634639 0.0211631563 0.0285082795 -0.00335634639 0.0309352353 0.0285082795 -0.00835634675 0.0211631563 0.0285082795 -0.00835634675 0.0309352353 0.0285082795 -0.00835634675 0.0211631563 0.0285082795 -0.00335634639 0.0309352353 0.0285082795 -0.00335634639 -0.0195647664 0.019508278 0.00664365431 0.0164352357 0.019508278 -0.00335634639 -0.0195647664 0.019508278 -0.00335634639 0.0164352357 0.019508278 -0.00335634639 -0.0195647664 0.019508278 0.00664365431 0.0164352357 0.019508278 0.00664365431 0.0164352357 0.019508278 -0.00335634639 0.0179352351 0.0180082787 0.00664365431 0.0179352351 0.0180082787 -0.00335634639 0.0179352351 0.0180082787 0.00664365431 0.0164352357 0.019508278 -0.00335634639 0.0164352357 0.019508278 0.00664365431 0.0164352357 -0.0194917228 0.00664365431 -0.0195647664 -0.0194917228 -0.00335634639 0.0164352357 -0.0194917228 -0.00335634639 -0.0195647664 -0.0194917228 -0.00335634639 0.0164352357 -0.0194917228 0.00664365431 -0.0195647664 -0.0194917228 0.00664365431 -0.0300647672 0.0285082795 -0.00335634639 -0.0300647672 -0.0284917243 -0.00835634675 -0.0300647672 -0.0284917243 -0.00335634639 -0.0300647672 -0.0284917243 -0.00835634675 -0.0300647672 0.0285082795 -0.00335634639 -0.0300647672 0.0285082795 -0.00835634675 0.0164352357 -0.0194917228 -0.0133563466 0.0179352351 -0.0179917235 -0.00835634675 0.0164352357 -0.0194917228 -0.00835634675 0.0179352351 -0.0179917235 -0.00835634675 0.0164352357 -0.0194917228 -0.0133563466 0.0179352351 -0.0179917235 -0.0133563466 -0.0210647676 0.0180082787 -0.00835634675 -0.0210647676 -0.0179917235 -0.0133563466 -0.0210647676 -0.0179917235 -0.00835634675 -0.0210647676 -0.0179917235 -0.0133563466 -0.0210647676 0.0180082787 -0.00835634675 -0.0210647676 0.0180082787 -0.0133563466 -0.0189514328 -0.00465045962 0.0186436549 -0.0189514328 0.00466702273 0.0186436549 -0.0195647664 8.27789336e-06 0.0186436549 -0.0189514328 0.00466702273 0.0186436549 -0.0189514328 -0.00465045962 0.0186436549 -0.0171532221 0.00900827814 0.0186436549 -0.0171532221 0.00900827814 0.0186436549 -0.0189514328 -0.00465045962 0.0186436549 -0.0171532221 -0.00899172295 0.0186436549 -0.0171532221 0.00900827814 0.0186436549 -0.0171532221 -0.00899172295 0.0186436549 -0.0142926872 0.0127362069 0.0186436549 -0.0142926872 0.0127362069 0.0186436549 -0.0171532221 -0.00899172295 0.0186436549 -0.0142926872 -0.0127196433 0.0186436549 -0.0142926872 0.0127362069 0.0186436549 -0.0142926872 -0.0127196433 0.0186436549 -0.0105647668 -0.0155801782 0.0186436549 -0.0142926872 0.0127362069 0.0186436549 -0.0105647668 -0.0155801782 0.0186436549 -0.0105647668 0.0155967418 0.0186436549 -0.0105647668 0.0155967418 0.0186436549 -0.0105647668 -0.0155801782 0.0186436549 -0.00622351095 0.0173949432 0.0186436549 -0.00622351095 0.0173949432 0.0186436549 -0.0105647668 -0.0155801782 0.0186436549 -0.00622351095 -0.017378388 0.0186436549 -0.00622351095 0.0173949432 0.0186436549 -0.00622351095 -0.017378388 0.0186436549 -0.00156476605 0.0180082787 0.0186436549 -0.00156476605 0.0180082787 0.0186436549 -0.00622351095 -0.017378388 0.0186436549 -0.00156476605 -0.0179917235 0.0186436549 -0.00156476605 0.0180082787 0.0186436549 -0.00156476605 -0.0179917235 0.0186436549 0.00309397909 -0.017378388 0.0186436549 -0.00156476605 0.0180082787 0.0186436549 0.00309397909 -0.017378388 0.0186436549 0.00309397909 0.0173949432 0.0186436549 0.00309397909 0.0173949432 0.0186436549 0.00309397909 -0.017378388 0.0186436549 0.00743523426 -0.0155801782 0.0186436549 0.00309397909 0.0173949432 0.0186436549 0.00743523426 -0.0155801782 0.0186436549 0.00743523426 0.0155967418 0.0186436549 0.00743523426 0.0155967418 0.0186436549 0.00743523426 -0.0155801782 0.0186436549 0.0111631555 0.0127362069 0.0186436549 0.0111631555 0.0127362069 0.0186436549 0.00743523426 -0.0155801782 0.0186436549 0.0111631555 -0.0127196433 0.0186436549 0.0111631555 0.0127362069 0.0186436549 0.0111631555 -0.0127196433 0.0186436549 0.0140236896 -0.00899172295 0.0186436549 0.0111631555 0.0127362069 0.0186436549 0.0140236896 -0.00899172295 0.0186436549 0.0140236896 0.00900827814 0.0186436549 0.0140236896 0.00900827814 0.0186436549 0.0140236896 -0.00899172295 0.0186436549 0.0158219002 -0.00465045962 0.0186436549 0.0140236896 0.00900827814 0.0186436549 0.0158219002 -0.00465045962 0.0186436549 0.0158219002 0.00466702273 0.0186436549 0.0158219002 0.00466702273 0.0186436549 0.0158219002 -0.00465045962 0.0186436549 0.0164352357 8.27789336e-06 0.0186436549 -0.0195647664 0.019508278 -0.00835634675 -0.0210647676 0.0180082787 -0.0133563466 -0.0210647676 0.0180082787 -0.00835634675 -0.0210647676 0.0180082787 -0.0133563466 -0.0195647664 0.019508278 -0.00835634675 -0.0195647664 0.019508278 -0.0133563466 -0.0195647664 0.019508278 -0.00835634675 0.0164352357 0.019508278 -0.0133563466 -0.0195647664 0.019508278 -0.0133563466 0.0164352357 0.019508278 -0.0133563466 -0.0195647664 0.019508278 -0.00835634675 0.0164352357 0.019508278 -0.00835634675 -0.00622351095 0.0173949432 0.0186436549 -0.00156476605 0.0180082787 0.00664365431 -0.00622351095 0.0173949432 0.00664365431 -0.00156476605 0.0180082787 0.00664365431 -0.00622351095 0.0173949432 0.0186436549 -0.00156476605 0.0180082787 0.0186436549 -0.0105647668 0.0155967418 0.0186436549 -0.00622351095 0.0173949432 0.00664365431 -0.0105647668 0.0155967418 0.00664365431 -0.00622351095 0.0173949432 0.00664365431 -0.0105647668 0.0155967418 0.0186436549 -0.00622351095 0.0173949432 0.0186436549 -0.0142926872 0.0127362069 0.0186436549 -0.0105647668 0.0155967418 0.00664365431 -0.0142926872 0.0127362069 0.00664365431 -0.0105647668 0.0155967418 0.00664365431 -0.0142926872 0.0127362069 0.0186436549 -0.0105647668 0.0155967418 0.0186436549 -0.0142926872 0.0127362069 0.0186436549 -0.0171532221 0.00900827814 0.00664365431 -0.0171532221 0.00900827814 0.0186436549 -0.0171532221 0.00900827814 0.00664365431 -0.0142926872 0.0127362069 0.0186436549 -0.0142926872 0.0127362069 0.00664365431 -0.0171532221 0.00900827814 0.0186436549 -0.0189514328 0.00466702273 0.00664365431 -0.0189514328 0.00466702273 0.0186436549 -0.0189514328 0.00466702273 0.00664365431 -0.0171532221 0.00900827814 0.0186436549 -0.0171532221 0.00900827814 0.00664365431 -0.0189514328 0.00466702273 0.0186436549 -0.0195647664 8.27789336e-06 0.00664365431 -0.0195647664 8.27789336e-06 0.0186436549 -0.0195647664 8.27789336e-06 0.00664365431 -0.0189514328 0.00466702273 0.0186436549 -0.0189514328 0.00466702273 0.00664365431 -0.0195647664 8.27789336e-06 0.0186436549 -0.0189514328 -0.00465045962 0.00664365431 -0.0189514328 -0.00465045962 0.0186436549 -0.0189514328 -0.00465045962 0.00664365431 -0.0195647664 8.27789336e-06 0.0186436549 -0.0195647664 8.27789336e-06 0.00664365431 -0.0189514328 -0.00465045962 0.0186436549 -0.0171532221 -0.00899172295 0.00664365431 -0.0171532221 -0.00899172295 0.0186436549 -0.0171532221 -0.00899172295 0.00664365431 -0.0189514328 -0.00465045962 0.0186436549 -0.0189514328 -0.00465045962 0.00664365431 -0.0171532221 -0.00899172295 0.0186436549 -0.0142926872 -0.0127196433 0.00664365431 -0.0142926872 -0.0127196433 0.0186436549 -0.0142926872 -0.0127196433 0.00664365431 -0.0171532221 -0.00899172295 0.0186436549 -0.0171532221 -0.00899172295 0.00664365431 -0.0105647668 -0.0155801782 0.0186436549 -0.0142926872 -0.0127196433 0.00664365431 -0.0105647668 -0.0155801782 0.00664365431 -0.0142926872 -0.0127196433 0.00664365431 -0.0105647668 -0.0155801782 0.0186436549 -0.0142926872 -0.0127196433 0.0186436549 -0.00622351095 -0.017378388 0.0186436549 -0.0105647668 -0.0155801782 0.00664365431 -0.00622351095 -0.017378388 0.00664365431 -0.0105647668 -0.0155801782 0.00664365431 -0.00622351095 -0.017378388 0.0186436549 -0.0105647668 -0.0155801782 0.0186436549 -0.00156476605 -0.0179917235 0.0186436549 -0.00622351095 -0.017378388 0.00664365431 -0.00156476605 -0.0179917235 0.00664365431 -0.00622351095 -0.017378388 0.00664365431 -0.00156476605 -0.0179917235 0.0186436549 -0.00622351095 -0.017378388 0.0186436549 0.00309397909 -0.017378388 0.0186436549 -0.00156476605 -0.0179917235 0.00664365431 0.00309397909 -0.017378388 0.00664365431 -0.00156476605 -0.0179917235 0.00664365431 0.00309397909 -0.017378388 0.0186436549 -0.00156476605 -0.0179917235 0.0186436549 0.00743523426 -0.0155801782 0.0186436549 0.00309397909 -0.017378388 0.00664365431 0.00743523426 -0.0155801782 0.00664365431 0.00309397909 -0.017378388 0.00664365431 0.00743523426 -0.0155801782 0.0186436549 0.00309397909 -0.017378388 0.0186436549 0.0111631555 -0.0127196433 0.0186436549 0.00743523426 -0.0155801782 0.00664365431 0.0111631555 -0.0127196433 0.00664365431 0.00743523426 -0.0155801782 0.00664365431 0.0111631555 -0.0127196433 0.0186436549 0.00743523426 -0.0155801782 0.0186436549 0.0140236896 -0.00899172295 0.00664365431 0.0111631555 -0.0127196433 0.0186436549 0.0111631555 -0.0127196433 0.00664365431 0.0111631555 -0.0127196433 0.0186436549 0.0140236896 -0.00899172295 0.00664365431 0.0140236896 -0.00899172295 0.0186436549 0.0158219002 -0.00465045962 0.00664365431 0.0140236896 -0.00899172295 0.0186436549 0.0140236896 -0.00899172295 0.00664365431 0.0140236896 -0.00899172295 0.0186436549 0.0158219002 -0.00465045962 0.00664365431 0.0158219002 -0.00465045962 0.0186436549 0.0164352357 8.27789336e-06 0.00664365431 0.0158219002 -0.00465045962 0.0186436549 0.0158219002 -0.00465045962 0.00664365431 0.0158219002 -0.00465045962 0.0186436549 0.0164352357 8.27789336e-06 0.00664365431 0.0164352357 8.27789336e-06 0.0186436549 0.0158219002 0.00466702273 0.00664365431 0.0164352357 8.27789336e-06 0.0186436549 0.0164352357 8.27789336e-06 0.00664365431 0.0164352357 8.27789336e-06 0.0186436549 0.0158219002 0.00466702273 0.00664365431 0.0158219002 0.00466702273 0.0186436549 0.0140236896 0.00900827814 0.00664365431 0.0158219002 0.00466702273 0.0186436549 0.0158219002 0.00466702273 0.00664365431 0.0158219002 0.00466702273 0.0186436549 0.0140236896 0.00900827814 0.00664365431 0.0140236896 0.00900827814 0.0186436549 0.0111631555 0.0127362069 0.00664365431 0.0140236896 0.00900827814 0.0186436549 0.0140236896 0.00900827814 0.00664365431 0.0140236896 0.00900827814 0.0186436549 0.0111631555 0.0127362069 0.00664365431 0.0111631555 0.0127362069 0.0186436549 0.00743523426 0.0155967418 0.0186436549 0.0111631555 0.0127362069 0.00664365431 0.00743523426 0.0155967418 0.00664365431 0.0111631555 0.0127362069 0.00664365431 0.00743523426 0.0155967418 0.0186436549 0.0111631555 0.0127362069 0.0186436549 0.00309397909 0.0173949432 0.0186436549 0.00743523426 0.0155967418 0.00664365431 0.00309397909 0.0173949432 0.00664365431 0.00743523426 0.0155967418 0.00664365431 0.00309397909 0.0173949432 0.0186436549 0.00743523426 0.0155967418 0.0186436549 0.0309352353 -0.00799172278 0.00364365405 0.0179352351 0.00800827798 0.00364365405 0.0179352351 -0.00799172278 0.00364365405 0.0179352351 0.00800827798 0.00364365405 0.0309352353 -0.00799172278 0.00364365405 0.0309352353 0.00800827798 0.00364365405 </float_array>
          <technique_common>
            <accessor count="606" offset="0" source="#mesh_0-positions-array" stride="3">
              <param name="X" type="float" />
              <param name="Y" type="float" />
              <param name="Z" type="float" />
            </accessor>
          </technique_common>
        </source>
        <source id="mesh_0-normals" name="mesh_0-normals">
          <float_array id="mesh_0-normals-array" count="1818"> 0.130526215 0.991444826 0 0.130526215 0.991444826 0 0.130526215 0.991444826 0 0.130526215 0.991444826 0 0.130526215 0.991444826 0 0.130526215 0.991444826 0 -0.707106292 -0.707107246 -0 -0.707106292 -0.707107246 -0 -0.707106292 -0.707107246 -0 -0.707106292 -0.707107246 0 -0.707106292 -0.707107246 0 -0.707106292 -0.707107246 0 -1 0 0 -1 0 0 -1 0 0 -1 -0 0 -1 -0 0 -1 -0 0 0 0 -1 0 0 -1 0 0 -1 -0 -0 -1 -0 -0 -1 -0 -0 -1 -0 -0 -1 -0 -0 -1 -0 -0 -1 -0 0 -1 -0 0 -1 -0 0 -1 -0 0 -1 -0 0 -1 -0 0 -1 -0 0 -1 -0 0 -1 -0 0 -1 -0 0 -1 -0 0 -1 -0 0 -1 0 -0 -1 0 -0 -1 0 -0 -1 0 -0 -1 0 -0 -1 0 -0 -1 -0 -0 -1 -0 -0 -1 -0 -0 -1 0 -0 -1 0 -0 -1 0 -0 -1 0 -0 -1 0 -0 -1 0 -0 -1 -0 -0 -1 -0 -0 -1 -0 -0 -1 0 0 1 0 0 1 0 0 1 0 -0 1 0 -0 1 0 -0 1 0 -0 1 0 -0 1 0 -0 1 0 0 1 0 0 1 0 0 1 0 0 1 0 0 1 0 0 1 0 0 1 0 0 1 0 0 1 0 0 1 0 0 1 0 0 1 -0 0 1 -0 0 1 -0 0 1 0 0 1 0 0 1 0 0 1 0 0 1 0 0 1 0 0 1 0 0 1 0 0 1 0 0 1 -0 -0 1 -0 -0 1 -0 -0 1 -0 -0 1 -0 -0 1 -0 -0 1 0 -0 1 0 -0 1 0 -0 1 0 -0 1 0 -0 1 0 -0 1 -0 0 1 -0 0 1 -0 0 1 0 0 1 0 0 1 0 0 1 0 -0 1 0 -0 1 0 -0 1 0 0 1 0 0 1 0 0 1 0 -0 1 0 -0 1 0 -0 1 0 0 1 0 0 1 0 0 1 0 0 0 0 0 0 0 0 0 0 0 0 0 0 0 0 0 0 0 -1 0 0 -1 0 0 -1 0 0 -1 -0 0 -1 -0 0 -1 -0 0 1 -0 0 1 -0 0 1 -0 0 1 0 0 1 0 0 1 0 1 -0 0 1 -0 0 1 -0 0 1 0 0 1 0 0 1 0 0 0 0 -1 0 0 -1 0 0 -1 -0 0 -1 -0 0 -1 -0 0 -1 -0 -0 -1 -0 -0 -1 -0 -0 -1 -0 0 -1 -0 0 -1 -0 0 -1 -0 -0 -1 -0 -0 -1 -0 -0 -1 -0 0 -1 -0 0 -1 -0 0 -1 -0.707106352 -0.707107186 -0 -0.707106352 -0.707107186 -0 -0.707106352 -0.707107186 -0 -0.707106352 -0.707107186 0 -0.707106352 -0.707107186 0 -0.707106352 -0.707107186 0 0 -1 0 0 -1 0 0 -1 0 0 -1 -0 0 -1 -0 0 -1 -0 1 -0 0 1 -0 0 1 -0 0 1 0 0 1 0 0 1 0 0 0.707106769 0.707106769 -0 0.707106769 0.707106769 -0 0.707106769 0.707106769 -0 0.707106769 0.707106769 0 0.707106769 0.707106769 0 0.707106769 0.707106769 0 0.707106829 -0.707106829 0 0.707106829 -0.707106829 0 0.707106829 -0.707106829 0 0.707106829 -0.707106829 0 0.707106829 -0.707106829 0 0.707106829 -0.707106829 0 -0.707106292 0.707107246 0 -0.707106292 0.707107246 0 -0.707106292 0.707107246 0 -0.707106292 0.707107246 0 -0.707106292 0.707107246 0 -0.707106292 0.707107246 0 0 1 -0 0 1 -0 0 1 -0 0 1 0 0 1 0 0 1 0 0 0 1 0 0 1 0 0 1 0 -0 1 0 -0 1 0 -0 1 0 -0 1 0 -0 1 0 -0 1 0 -0 1 0 -0 1 0 -0 1 0 -0 1 0 -0 1 0 -0 1 0 -0 1 0 -0 1 0 -0 1 0 -0 1 0 -0 1 0 -0 1 0 0 1 0 0 1 0 0 1 0 0 1 0 0 1 0 0 1 0 0 1 0 0 1 0 0 1 0 0 1 0 0 1 0 0 1 0 0 1 0 0 1 0 0 1 0 0 1 0 0 1 0 0 1 0 -0 1 0 -0 1 0 -0 1 0 0 1 0 0 1 0 0 1 0 0 1 0 0 1 0 0 1 -0 0 1 -0 0 1 -0 0 1 0 0 1 0 0 1 0 0 1 0 0 0 0 0 0 0 0 0 0 -0 1 0 -0 1 0 -0 1 0 0 1 0 0 1 0 0 1 0 0 1 0 0 1 0 0 1 0 0 1 0 0 1 0 0 1 0 0 1 0 0 1 0 0 1 0 0 1 0 0 1 0 0 1 0 0 1 0 0 1 0 0 1 0 -0 1 0 -0 1 0 -0 1 0 -0 1 0 -0 1 0 -0 1 0 -0 1 0 -0 1 0 -0 1 0 -0 1 0 -0 1 0 -0 1 0 -0 1 0 -0 1 0 -0 1 0 -0 1 0 -0 1 0 -0 1 1 -0 0 1 -0 0 1 -0 0 1 -0 0 1 -0 0 1 -0 0 1 0 0 1 0 0 1 0 0 1 0 0 1 0 0 1 0 0 1 0 -0 1 0 -0 1 0 -0 1 0 -0 1 0 -0 1 0 -0 0 -1 0 0 -1 0 0 -1 0 0 -1 -0 0 -1 -0 0 -1 -0 1 -0 0 1 -0 0 1 -0 0 1 0 0 1 0 0 1 0 0 1 0 0 1 0 0 1 0 0 1 0 0 1 0 0 1 0 0 1 0 0 1 0 0 1 0 0 1 0 -0 1 0 -0 1 0 -0 0 1 -0 0 1 -0 0 1 -0 0 1 0 0 1 0 0 1 0 0 1 -0 0 1 -0 0 1 -0 0 1 0 0 1 0 0 1 0 0.707106829 0.707106829 -0 0.707106829 0.707106829 -0 0.707106829 0.707106829 -0 0.707106829 0.707106829 0 0.707106829 0.707106829 0 0.707106829 0.707106829 0 0 -1 0 0 -1 0 0 -1 0 0 -1 -0 0 -1 -0 0 -1 -0 -1 0 0 -1 0 0 -1 0 0 -1 -0 0 -1 -0 0 -1 -0 0 0.707106769 -0.707106769 0 0.707106769 -0.707106769 0 0.707106769 -0.707106769 0 0.707106769 -0.707106769 0 0.707106769 -0.707106769 0 0.707106769 -0.707106769 0 -1 0 0 -1 0 0 -1 0 0 -1 -0 0 -1 -0 0 -1 -0 0 -0 0 1 -0 0 1 -0 0 1 0 -0 1 0 -0 1 0 -0 1 0 -0 1 0 -0 1 0 -0 1 0 -0 1 0 -0 1 0 -0 1 0 -0 1 0 -0 1 0 -0 1 0 -0 1 0 -0 1 0 -0 1 0 0 1 0 0 1 0 0 1 0 -0 1 0 -0 1 0 -0 1 0 -0 1 0 -0 1 0 -0 1 0 -0 1 0 -0 1 0 -0 1 0 -0 1 0 -0 1 0 -0 1 0 -0 1 0 -0 1 0 -0 1 0 0 1 0 0 1 0 0 1 0 -0 1 0 -0 1 0 -0 1 0 0 1 0 0 1 0 0 1 0 -0 1 0 -0 1 0 -0 1 0 -0 1 0 -0 1 0 -0 1 0 -0 1 0 -0 1 0 -0 1 0 0 1 0 0 1 0 0 1 0 -0 1 0 -0 1 0 -0 1 0 0 1 0 0 1 0 0 1 0 -0 1 0 -0 1 0 -0 1 -0.707106352 0.707107186 0 -0.707106352 0.707107186 0 -0.707106352 0.707107186 0 -0.707106352 0.707107186 0 -0.707106352 0.707107186 0 -0.707106352 0.707107186 0 0 1 -0 0 1 -0 0 1 -0 0 1 0 0 1 0 0 1 0 -0.130526215 0.991444826 0 -0.130526215 0.991444826 0 -0.130526215 0.991444826 0 -0.130526215 0.991444826 0 -0.130526215 0.991444826 0 -0.130526215 0.991444826 0 -0.382682413 0.923879981 0 -0.382682413 0.923879981 0 -0.382682413 0.923879981 0 -0.382682413 0.923879981 0 -0.382682413 0.923879981 0 -0.382682413 0.923879981 0 -0.608761549 0.7933532 0 -0.608761549 0.7933532 0 -0.608761549 0.7933532 0 -0.608761549 0.7933532 0 -0.608761549 0.7933532 0 -0.608761549 0.7933532 0 -0.793353915 0.608760715 0 -0.793353915 0.608760715 0 -0.793353915 0.608760715 0 -0.793353915 0.608760715 0 -0.793353915 0.608760715 0 -0.793353915 0.608760715 0 -0.923879266 0.382684112 0 -0.923879266 0.382684112 0 -0.923879266 0.382684112 0 -0.923879266 0.382684112 0 -0.923879266 0.382684112 0 -0.923879266 0.382684112 0 -0.991444886 0.130525827 0 -0.991444886 0.130525827 0 -0.991444886 0.130525827 0 -0.991444886 0.130525827 0 -0.991444886 0.130525827 0 -0.991444886 0.130525827 0 -0.991444886 -0.130526021 -0 -0.991444886 -0.130526021 -0 -0.991444886 -0.130526021 -0 -0.991444886 -0.130526021 0 -0.991444886 -0.130526021 0 -0.991444886 -0.130526021 0 -0.923879504 -0.382683516 -0 -0.923879504 -0.382683516 -0 -0.923879504 -0.382683516 -0 -0.923879504 -0.382683516 0 -0.923879504 -0.382683516 0 -0.923879504 -0.382683516 0 -0.7933532 -0.608761549 -0 -0.7933532 -0.608761549 -0 -0.7933532 -0.608761549 -0 -0.7933532 -0.608761549 0 -0.7933532 -0.608761549 0 -0.7933532 -0.608761549 0 -0.608761549 -0.7933532 0 -0.608761549 -0.7933532 0 -0.608761549 -0.7933532 0 -0.608761549 -0.7933532 0 -0.608761549 -0.7933532 0 -0.608761549 -0.7933532 0 -0.382683903 -0.923879325 0 -0.382683903 -0.923879325 0 -0.382683903 -0.923879325 0 -0.382683903 -0.923879325 0 -0.382683903 -0.923879325 0 -0.382683903 -0.923879325 0 -0.130526215 -0.991444826 0 -0.130526215 -0.991444826 0 -0.130526215 -0.991444826 0 -0.130526215 -0.991444826 0 -0.130526215 -0.991444826 0 -0.130526215 -0.991444826 0 0.130526215 -0.991444826 0 0.130526215 -0.991444826 0 0.130526215 -0.991444826 0 0.130526215 -0.991444826 0 0.130526215 -0.991444826 0 0.130526215 -0.991444826 0 0.382683992 -0.923879325 0 0.382683992 -0.923879325 0 0.382683992 -0.923879325 0 0.382683992 -0.923879325 0 0.382683992 -0.923879325 0 0.382683992 -0.923879325 0 0.60876143 -0.793353319 0 0.60876143 -0.793353319 0 0.60876143 -0.793353319 0 0.60876143 -0.793353319 0 0.60876143 -0.793353319 0 0.60876143 -0.793353319 0 0.793353319 -0.60876143 0 0.793353319 -0.60876143 0 0.793353319 -0.60876143 0 0.793353319 -0.60876143 0 0.793353319 -0.60876143 0 0.793353319 -0.60876143 0 0.923879504 -0.382683516 0 0.923879504 -0.382683516 0 0.923879504 -0.382683516 0 0.923879504 -0.382683516 0 0.923879504 -0.382683516 0 0.923879504 -0.382683516 0 0.991444826 -0.130526409 0 0.991444826 -0.130526409 0 0.991444826 -0.130526409 0 0.991444826 -0.130526409 0 0.991444826 -0.130526409 0 0.991444826 -0.130526409 0 0.991444826 0.130526215 -0 0.991444826 0.130526215 -0 0.991444826 0.130526215 -0 0.991444826 0.130526215 0 0.991444826 0.130526215 0 0.991444826 0.130526215 0 0.923879266 0.382684112 -0 0.923879266 0.382684112 -0 0.923879266 0.382684112 -0 0.923879266 0.382684112 0 0.923879266 0.382684112 0 0.923879266 0.382684112 0 0.793353975 0.608760595 -0 0.793353975 0.608760595 -0 0.793353975 0.608760595 -0 0.793353975 0.608760595 0 0.793353975 0.608760595 0 0.793353975 0.608760595 0 0.60876143 0.793353319 0 0.60876143 0.793353319 0 0.60876143 0.793353319 0 0.60876143 0.793353319 0 0.60876143 0.793353319 0 0.60876143 0.793353319 0 0.382682472 0.923879921 0 0.382682472 0.923879921 0 0.382682472 0.923879921 0 0.382682472 0.923879921 0 0.382682472 0.923879921 0 0.382682472 0.923879921 0 -0 0 1 -0 0 1 -0 0 1 0 0 1 0 0 1 0 0 1 </float_array>
          <technique_common>
            <accessor count="606" offset="0" source="#mesh_0-normals-array" stride="3">
              <param name="X" type="float" />
              <param name="Y" type="float" />
              <param name="Z" type="float" />
            </accessor>
          </technique_common>
        </source>
        <vertices id="mesh_0-vertices">
          <input semantic="POSITION" source="#mesh_0-positions" />
        </vertices>
        <polylist count="202" material="defaultMaterial">
          <input offset="0" semantic="VERTEX" source="#mesh_0-vertices" />
          <input offset="0" semantic="NORMAL" source="#mesh_0-normals" />
          <vcount>3 3 3 3 3 3 3 3 3 3 3 3 3 3 3 3 3 3 3 3 3 3 3 3 3 3 3 3 3 3 3 3 3 3 3 3 3 3 3 3 3 3 3 3 3 3 3 3 3 3 3 3 3 3 3 3 3 3 3 3 3 3 3 3 3 3 3 3 3 3 3 3 3 3 3 3 3 3 3 3 3 3 3 3 3 3 3 3 3 3 3 3 3 3 3 3 3 3 3 3 3 3 3 3 3 3 3 3 3 3 3 3 3 3 3 3 3 3 3 3 3 3 3 3 3 3 3 3 3 3 3 3 3 3 3 3 3 3 3 3 3 3 3 3 3 3 3 3 3 3 3 3 3 3 3 3 3 3 3 3 3 3 3 3 3 3 3 3 3 3 3 3 3 3 3 3 3 3 3 3 3 3 3 3 3 3 3 3 3 3 3 3 3 3 3 3 3 3 3 3 3 3 </vcount>
          <p>0 1 2 3 4 5 6 7 8 9 10 11 12 13 14 15 16 17 18 19 20 21 22 23 24 25 26 27 28 29 30 31 32 33 34 35 36 37 38 39 40 41 42 43 44 45 46 47 48 49 50 51 52 53 54 55 56 57 58 59 60 61 62 63 64 65 66 67 68 69 70 71 72 73 74 75 76 77 78 79 80 81 82 83 84 85 86 87 88 89 90 91 92 93 94 95 96 97 98 99 100 101 102 103 104 105 106 107 108 109 110 111 112 113 114 115 116 117 118 119 120 121 122 123 124 125 126 127 128 129 130 131 132 133 134 135 136 137 138 139 140 141 142 143 144 145 146 147 148 149 150 151 152 153 154 155 156 157 158 159 160 161 162 163 164 165 166 167 168 169 170 171 172 173 174 175 176 177 178 179 180 181 182 183 184 185 186 187 188 189 190 191 192 193 194 195 196 197 198 199 200 201 202 203 204 205 206 207 208 209 210 211 212 213 214 215 216 217 218 219 220 221 222 223 224 225 226 227 228 229 230 231 232 233 234 235 236 237 238 239 240 241 242 243 244 245 246 247 248 249 250 251 252 253 254 255 256 257 258 259 260 261 262 263 264 265 266 267 268 269 270 271 272 273 274 275 276 277 278 279 280 281 282 283 284 285 286 287 288 289 290 291 292 293 294 295 296 297 298 299 300 301 302 303 304 305 306 307 308 309 310 311 312 313 314 315 316 317 318 319 320 321 322 323 324 325 326 327 328 329 330 331 332 333 334 335 336 337 338 339 340 341 342 343 344 345 346 347 348 349 350 351 352 353 354 355 356 357 358 359 360 361 362 363 364 365 366 367 368 369 370 371 372 373 374 375 376 377 378 379 380 381 382 383 384 385 386 387 388 389 390 391 392 393 394 395 396 397 398 399 400 401 402 403 404 405 406 407 408 409 410 411 412 413 414 415 416 417 418 419 420 421 422 423 424 425 426 427 428 429 430 431 432 433 434 435 436 437 438 439 440 441 442 443 444 445 446 447 448 449 450 451 452 453 454 455 456 457 458 459 460 461 462 463 464 465 466 467 468 469 470 471 472 473 474 475 476 477 478 479 480 481 482 483 484 485 486 487 488 489 490 491 492 493 494 495 496 497 498 499 500 501 502 503 504 505 506 507 508 509 510 511 512 513 514 515 516 517 518 519 520 521 522 523 524 525 526 527 528 529 530 531 532 533 534 535 536 537 538 539 540 541 542 543 544 545 546 547 548 549 550 551 552 553 554 555 556 557 558 559 560 561 562 563 564 565 566 567 568 569 570 571 572 573 574 575 576 577 578 579 580 581 582 583 584 585 586 587 588 589 590 591 592 593 594 595 596 597 598 599 600 601 602 603 604 605 </p>
        </polylist>
      </mesh>
    </geometry>
  </library_geometries>
  <library_controllers>
  </library_controllers>
  <library_visual_scenes>
    <visual_scene id="_ySTL_BINARY_" name="&lt;STL_BINARY&gt;">
      <node id="node" name="" type="NODE">
        <matrix sid="matrix">1 0 0 0 0 1 0 0 0 0 1 0 0 0 0 1</matrix>
        <instance_geometry url="#mesh_0">
          <bind_material>
            <technique_common>
              <instance_material symbol="defaultMaterial" target="#DefaultMaterial">
              </instance_material>
            </technique_common>
          </bind_material>
        </instance_geometry>
      </node>
    </visual_scene>
  </library_visual_scenes>
  <scene>
    <instance_visual_scene url="#_ySTL_BINARY_" />
  </scene>
</COLLADA>
